<svg width="48" height="48" fill="none" xmlns="http://www.w3.org/2000/svg"><path d="M42 12.042c.006-.292-.014-2.93-2.6-5.47C36.854 4.072 34.286 4 34 4H13.992c-.478 0-2.986.126-5.416 2.604C6.072 9.156 6 11.718 6 12v6H4v6h2v12c0 1.468.812 2.746 2 3.442V42a2 2 0 002 2h2a2 2 0 002-2v-2h20v2a2 2 0 002 2h2a2 2 0 002-2v-2.554A3.98 3.98 0 0042 36V24h2v-6h-2v-5.958zM18 8h12v4H18V8zm-5 28a3.001 3.001 0 11.002-6.002A3.001 3.001 0 0113 36zm9-10H10V16h12v10zm13 10a3.001 3.001 0 11.002-6.002A3.001 3.001 0 0135 36zm3-10H26V16h12v10z" fill="#1C68D0"/></svg>