<svg width="48" height="48" fill="none" xmlns="http://www.w3.org/2000/svg"><path d="M7.367 19.309c.62 0 1.12-.933 1.12-2.084s-.5-2.084-1.12-2.084c-.619 0-1.12.933-1.12 2.084 0 1.15.502 2.084 1.12 2.084zm9.612-7.646c1.25 0 2.262-1.884 2.262-4.208 0-2.324-1.012-4.208-2.262-4.208s-2.262 1.884-2.262 4.208c0 2.324 1.012 4.208 2.262 4.208zm-4.666-.24c.78 0 1.411-1.175 1.411-2.625s-.632-2.625-1.411-2.625c-.78 0-1.412 1.175-1.412 2.625s.632 2.625 1.412 2.625zm6.501 24.117c-.348-1.038-.543-2.227-.566-3.45a12.16 12.16 0 01.434-3.516l-.009-.024c.58-1.614.888-3.51.887-5.451 0-5.436-2.37-9.843-5.292-9.843-2.923 0-5.292 4.407-5.292 9.843 0 1.062.093 2.082.26 3.04.111.849.291 1.66.534 2.406l-.025.026 3.833 12.35c.405 2.228 1.535 3.833 2.869 3.833 1.673 0 3.03-2.523 3.03-5.636 0-1.35-.256-2.59-.682-3.56l.019-.017zM9.332 14.897c.619 0 1.12-.933 1.12-2.084s-.501-2.085-1.12-2.085c-.62 0-1.12.934-1.12 2.085 0 1.15.5 2.084 1.12 2.084zm31.301 4.412c-.62 0-1.12-.933-1.12-2.084s.5-2.084 1.12-2.084c.618 0 1.12.933 1.12 2.084 0 1.15-.502 2.084-1.12 2.084zm-9.612-7.646c-1.25 0-2.262-1.884-2.262-4.208 0-2.324 1.012-4.208 2.262-4.208s2.262 1.884 2.262 4.208c0 2.324-1.013 4.208-2.262 4.208zm4.666-.24c-.78 0-1.411-1.175-1.411-2.625s.632-2.625 1.411-2.625c.78 0 1.412 1.175 1.412 2.625s-.632 2.625-1.412 2.625zM29.186 35.54c.348-1.038.543-2.227.566-3.45a12.16 12.16 0 00-.434-3.516l.009-.024c-.58-1.614-.888-3.51-.887-5.451 0-5.436 2.37-9.843 5.292-9.843 2.923 0 5.292 4.407 5.292 9.843a17.73 17.73 0 01-.26 3.04 13.44 13.44 0 01-.534 2.406l.025.026-3.833 12.35c-.405 2.228-1.535 3.833-2.869 3.833-1.673 0-3.03-2.523-3.03-5.636 0-1.35.256-2.59.682-3.56l-.019-.017zm9.482-20.643c-.618 0-1.12-.933-1.12-2.084s.502-2.085 1.12-2.085c.62 0 1.12.934 1.12 2.085 0 1.15-.5 2.084-1.12 2.084z" fill="#1328E3"/></svg>