<svg width="591" height="672" fill="none" xmlns="http://www.w3.org/2000/svg"><g filter="url(#filter0_d)"><path d="M0-14v676h581V-14H0zm31 620a9.998 9.998 0 01-7.071-17.071A9.998 9.998 0 0141 596a10 10 0 01-10 10zm0-49a9.998 9.998 0 01-7.071-17.071A9.998 9.998 0 0141 547a10 10 0 01-10 10zm0-48a9.998 9.998 0 01-7.071-17.071A9.998 9.998 0 0141 499a10 10 0 01-10 10zm0-49a10.006 10.006 0 01-9.239-6.173A10 10 0 1131 460zm0-49a9.998 9.998 0 01-7.071-17.071A9.998 9.998 0 0141 401a10 10 0 01-10 10zm0-48a9.998 9.998 0 01-7.071-17.071A9.998 9.998 0 0141 353a10 10 0 01-10 10zm0-49a9.998 9.998 0 01-7.071-17.071A9.998 9.998 0 0141 304a10 10 0 01-10 10zm0-49a9.998 9.998 0 01-7.071-17.071A9.998 9.998 0 0141 255a10 10 0 01-10 10zm0-48a9.998 9.998 0 01-7.071-17.071A9.998 9.998 0 0141 207a10 10 0 01-10 10zm0-49a9.998 9.998 0 01-7.071-17.071A9.998 9.998 0 0141 158a10 10 0 01-10 10zm0-49a9.998 9.998 0 01-7.071-17.071 9.997 9.997 0 0115.386 1.515A10.002 10.002 0 0131 119zm0-47a10 10 0 110-20 10 10 0 010 20z" fill="#E4EEEE"/></g><defs><filter id="filter0_d" x="0" y="-14" width="591" height="686" filterUnits="userSpaceOnUse" color-interpolation-filters="sRGB"><feFlood flood-opacity="0" result="BackgroundImageFix"/><feColorMatrix in="SourceAlpha" values="0 0 0 0 0 0 0 0 0 0 0 0 0 0 0 0 0 0 127 0"/><feOffset dx="5" dy="5"/><feGaussianBlur stdDeviation="2.5"/><feColorMatrix values="0 0 0 0 0 0 0 0 0 0 0 0 0 0 0 0 0 0 0.25 0"/><feBlend in2="BackgroundImageFix" result="effect1_dropShadow"/><feBlend in="SourceGraphic" in2="effect1_dropShadow" result="shape"/></filter></defs></svg>