<svg width="21" height="21" fill="none" xmlns="http://www.w3.org/2000/svg"><path d="M14.495 19.25h.025a1.73 1.73 0 001.23-.514l2.372-2.373a.874.874 0 000-1.237l-3.5-3.5a.874.874 0 00-1.237 0l-1.395 1.395c-.647-.193-1.853-.63-2.618-1.395-.765-.765-1.202-1.971-1.395-2.618l1.395-1.395a.874.874 0 000-1.237l-3.5-3.5a.901.901 0 00-1.237 0L2.263 5.25a1.75 1.75 0 00-.513 1.256c.02 1.246.35 5.574 3.76 8.984 3.411 3.411 7.74 3.74 8.985 3.76zM5.255 4.731l2.262 2.263-1.131 1.131a.872.872 0 00-.237.798c.02.1.534 2.487 1.987 3.94 1.452 1.452 3.838 1.965 3.939 1.986a.87.87 0 00.798-.237l1.131-1.131 2.263 2.263-1.755 1.754c-1.092-.018-4.828-.311-7.764-3.248-2.945-2.945-3.23-6.694-3.248-7.765l1.754-1.754zm12.244 4.892h1.75c0-4.489-3.389-7.874-7.884-7.874V3.5c3.555 0 6.134 2.575 6.134 6.124z" fill="#fff"/><path d="M11.374 7c1.84 0 2.625.785 2.625 2.625h1.75c0-2.822-1.553-4.375-4.375-4.375V7z" fill="#fff"/></svg>