<svg width="50" height="50" fill="none" xmlns="http://www.w3.org/2000/svg"><path d="M25 37.418A12.4 12.4 0 0112.582 25 12.4 12.4 0 0125 12.582 12.4 12.4 0 0137.418 25 12.4 12.4 0 0125 37.418zm0-20.489c-4.444 0-8.07 3.627-8.07 8.071s3.626 8.07 8.07 8.07c4.444 0 8.07-3.626 8.07-8.07 0-4.444-3.626-8.07-8.07-8.07zm12.927 23.892a2.897 2.897 0 01-2.9-2.9c0-1.605 1.295-2.9 2.9-2.9 1.604 0 2.9 1.29 2.9 2.9a2.896 2.896 0 01-2.9 2.9zM49.207 25c0 3.342.03 6.654-.158 9.99-.188 3.875-1.072 7.314-3.905 10.148-2.84 2.84-6.273 3.718-10.148 3.905-3.342.188-6.654.158-9.99.158-3.342 0-6.654.03-9.99-.158-3.875-.188-7.314-1.072-10.148-3.905-2.84-2.84-3.717-6.273-3.905-10.148C.775 31.648.805 28.336.805 25c0-3.336-.03-6.654.158-9.99.188-3.875 1.072-7.314 3.905-10.148 2.84-2.84 6.273-3.717 10.148-3.905 3.342-.188 6.654-.158 9.99-.158 3.342 0 6.654-.03 9.99.158 3.875.188 7.314 1.072 10.148 3.905 2.84 2.84 3.718 6.273 3.905 10.148.194 3.336.158 6.648.158 9.99zm-5.328-14.277c-.442-1.102-.975-1.925-1.829-2.773a7.745 7.745 0 00-2.773-1.829C36.092 4.856 28.53 5.141 25 5.141c-3.53 0-11.098-.285-14.283.974-1.102.442-1.925.975-2.773 1.829a7.745 7.745 0 00-1.829 2.773C4.856 13.907 5.141 21.47 5.141 25c0 3.53-.285 11.098.974 14.283.442 1.102.975 1.925 1.829 2.773.854.848 1.671 1.387 2.773 1.829 3.185 1.259 10.753.974 14.283.974 3.53 0 11.098.285 14.283-.974 1.102-.442 1.925-.975 2.773-1.829a7.746 7.746 0 001.829-2.773c1.259-3.185.974-10.753.974-14.283 0-3.53.285-11.092-.98-14.277z" fill="#fff"/></svg>