<svg width="112" height="43" fill="none" xmlns="http://www.w3.org/2000/svg"><g filter="url(#filter0_d)"><path d="M47.897 10.2a.845.845 0 01.194-.033c.23-.003.347.095.35.295.002.16-.076.311-.233.454a.795.795 0 01-.508.202c-.27.004-.406-.109-.41-.339-.004-.28.172-.573.527-.878a3.16 3.16 0 01.268-.184c.109-.071.213-.138.312-.2a2.3 2.3 0 01.283-.139.589.589 0 01.179-.062c.03 0 .045.01.045.03 0 .02-.02.044-.059.075a5.97 5.97 0 00-.609.414 1.82 1.82 0 00-.37.365h.03zm1.2-.018a.845.845 0 01.194-.032c.23-.004.347.095.35.294.002.16-.076.312-.234.454a.795.795 0 01-.507.202c-.27.004-.406-.109-.41-.339-.004-.28.172-.572.527-.877a3.16 3.16 0 01.267-.184c.11-.072.214-.139.313-.2.109-.062.203-.108.282-.14a.589.589 0 01.18-.062c.03 0 .045.01.045.03 0 .02-.02.045-.059.075a6.13 6.13 0 00-.609.414 1.823 1.823 0 00-.37.366h.03zm14.828-.577c-.17.042-.334.095-.493.157.376.355.563.812.56 1.372 0 .67-.346 1.25-1.038 1.74-.545.389-1.062.601-1.551.638a.589.589 0 01-.075.031c.373.185.637.466.793.844.051.06.102.123.153.193.326.405.493.848.5 1.328a2.18 2.18 0 01-.313 1.13c-.205.362-.48.691-.826.986a4.386 4.386 0 01-1.19.693l-.044.016a2.613 2.613 0 01-1.553.502.897.897 0 01-.694-.304 1.312 1.312 0 01-.2-.283 1.17 1.17 0 01-.418-.909c-.005-.28.051-.55.168-.812.126-.272.292-.51.499-.712a2.61 2.61 0 01.355-.306c.46-.687.993-1.17 1.6-1.448.158-.073.427-.162.805-.267.1-.002.156.028.166.087.002.07-.048.106-.148.108-.22.023-.474.102-.762.236-.516.227-.96.594-1.333 1.1.01 0 .02-.006.03-.016a2.15 2.15 0 01.852-.192c.19-.003.285.04.287.13 0 .04-.02.06-.06.061l-.495-.023c-.03 0-.124.037-.283.11a2.875 2.875 0 00-.596.308l-.058.106c-.42.686-.626 1.275-.619 1.765.002.15.02.284.051.404.041.05.087.099.138.148.243.206.544.307.904.302.38-.006.743-.121 1.09-.346.119-.082.233-.169.341-.26l.06-.076c.697-.84 1.114-1.712 1.25-2.614.009-.1.012-.205.01-.315-.011-.77-.379-1.28-1.102-1.53-.21.044-.38.077-.509.098-.13.012-.265.02-.405.021l-.18.003a.306.306 0 00-.135.002c-.36.645-.726 1.29-1.096 1.936a8.939 8.939 0 01-2.763 2.846c-1.109.726-2.234 1.098-3.373 1.115-.68.01-1.289-.226-1.826-.709-.447-.443-.734-.934-.862-1.472-.828-.528-1.25-1.362-1.268-2.502-.017-1.15.333-2.14 1.05-2.97.718-.841 1.632-1.27 2.742-1.286a2.28 2.28 0 011.66.65c.173.178.315.366.428.565.332.075.634.22.907.436.14.018.276.051.407.1.25.076.468.193.65.35.182.147.325.325.428.534.113.198.171.417.175.657.005.38-.104.752-.329 1.115-.214.353-.5.627-.858.823a1.16 1.16 0 01-.268.124l-.06.03a3.859 3.859 0 01-.782.837c-.87.723-1.824 1.092-2.864 1.107a4.755 4.755 0 01-.675-.035c.01.01.02.025.03.045.195.327.444.573.747.739.17.087.367.154.588.201.23.057.466.083.706.08.71-.01 1.356-.25 1.94-.719.583-.468 1.166-1.212 1.751-2.23l1.418-2.482c.303-.484.612-.924.926-1.318a9.927 9.927 0 011.033-1.11c.365-.346.76-.667 1.186-.963.416-.296.877-.583 1.382-.86-.322-.136-.713-.2-1.173-.193-.49.007-.993.094-1.51.262a2.97 2.97 0 01-.24 1.009 3.66 3.66 0 01-.088.196c-.121.582-.413 1.166-.874 1.753-.578.768-1.093 1.156-1.543 1.163-.46.006-.694-.265-.702-.815a3.54 3.54 0 01.01-.315c-.162-.178-.246-.412-.25-.702-.005-.31.08-.621.256-.934.175-.312.416-.596.722-.85a4.935 4.935 0 011.115-.692c.219-.093.443-.176.672-.25a1.013 1.013 0 00-.512-.112c-.68.01-1.31.36-1.89 1.048-.54.638-.806 1.257-.797 1.857 0 .03-.02.045-.06.046-.04 0-.06-.015-.06-.045-.01-.64.27-1.294.84-1.962.59-.709 1.24-1.068 1.95-1.079.3-.004.54.057.723.185a7.89 7.89 0 01.523-.113c-.096-.379-.28-.671-.553-.877-.273-.216-.605-.321-.995-.316-.45.007-.888.123-1.315.35a3.475 3.475 0 00-1.097.9 3.529 3.529 0 00-.41.607 2.016 2.016 0 00-.217.573c-.018.14-.037.23-.056.271-.02.04-.044.06-.074.061-.06.001-.09-.039-.092-.119-.002-.17.064-.4.2-.692.135-.293.302-.555.498-.788.314-.395.705-.71 1.171-.947.466-.247.925-.374 1.375-.38.45-.007.826.108 1.13.343.303.236.508.563.614.981a4.13 4.13 0 01.435-.036c.12-.012.24-.019.36-.02.45-.007.835.027 1.157.103.33.075.658.205.98.39.636-.31 1.084-.466 1.343-.47.1 0 .151.033.152.103 0 .05-.064.076-.194.078-.28.004-.653.14-1.119.407.02.02.046.039.076.059.03.02.066.039.106.058l.152.118.328-.095c.11-.032.24-.069.389-.11.05-.001.075.018.076.058 0 .05-.014.075-.044.076-.03 0-.08.006-.15.017zm-8.23 4.411c-.008-.53-.2-.967-.575-1.312l-.12-.103a1.93 1.93 0 00-.346-.025c-.09.002-.18.008-.27.02.053.188.081.388.084.598a3.068 3.068 0 01-.44 1.627c-.332.555-.782.921-1.349 1.1-.11.001-.17-.018-.18-.058-.002-.08.022-.12.072-.12.06-.012.135-.028.225-.05.457-.166.832-.486 1.125-.96a2.914 2.914 0 00.427-1.582 2.424 2.424 0 00-.068-.554c-.3.044-.604.129-.912.253a4.07 4.07 0 00-1.823 1.437 5.43 5.43 0 00-.512.878 4.973 4.973 0 00-.316.95c-.075.32-.11.636-.106.946.004.29.068.569.192.837.22.027.471.038.75.034 1.02-.015 1.95-.368 2.79-1.06a4.85 4.85 0 00.665-.7c-.02-.01-.03-.03-.03-.06-.001-.03.008-.05.028-.06.02-.01.065-.032.134-.063a3.44 3.44 0 00.556-1.973zm-2.046-2.4a2.295 2.295 0 00-1.584-.562c-1.04.015-1.914.418-2.622 1.209-.698.79-1.04 1.73-1.023 2.82.014.97.37 1.725 1.069 2.264a4 4 0 01-.101-.763c-.018-1.17.327-2.205 1.033-3.106.795-1.021 1.848-1.542 3.157-1.561.13-.002.26.006.39.024a1.962 1.962 0 00-.32-.325zm6.402 1.781v-.03c-.002-.13.082-.196.252-.199.21-.003.466.079.769.244a3.53 3.53 0 001.425-1.026 3.05 3.05 0 00.541-.893c.135-.332.2-.663.195-.993a1.214 1.214 0 00-.159-.598c-.774.352-1.491.918-2.15 1.697-.383.456-.789 1.052-1.218 1.788.13-.002.245.002.345.01zm-.529-3.262c-.003-.22-.035-.38-.097-.479-.736.23-1.395.67-1.975 1.32-.453.496-.726.985-.819 1.466a.69.69 0 00.513.188c.3-.005.604-.114.91-.329.307-.214.583-.483.829-.807.255-.334.46-.697.613-1.089l.015-.015c.009-.08.013-.165.011-.255zm-9.31 7.442a2.751 2.751 0 01-.24-1.092c-.009-.52.128-1.047.41-1.58.283-.535.666-.99 1.15-1.368a5.337 5.337 0 011.503-.817 5.18 5.18 0 011.181-.287 1.028 1.028 0 00-.078-.21 2.684 2.684 0 00-.496-.037c-1.14.017-2.123.491-2.949 1.423-.787.882-1.172 1.858-1.156 2.928.005.38.04.674.103.883.182.158.404.28.666.365l-.093-.208zm2.606 1.717c-.38.005-.74-.07-1.083-.224a2.998 2.998 0 01-.894-.602 2.598 2.598 0 01-.428-.504 2.21 2.21 0 01-.71-.335c.127.488.414.92.86 1.293.496.443 1.04.66 1.63.651a3.903 3.903 0 001.763-.43 4.937 4.937 0 01-1.138.15zm5.897-9.958a4.66 4.66 0 00-.849.403 3.395 3.395 0 00-1.08.96c-.255.374-.38.751-.374 1.131.003.18.035.33.097.449.113-.472.376-.95.789-1.437a4.152 4.152 0 012.08-1.365.985.985 0 00-.23-.297 4.51 4.51 0 00-.433.156zm-2.582 5.859c.244-.354.364-.736.357-1.146-.006-.45-.182-.807-.526-1.072a1.738 1.738 0 00-.665-.335c.346.375.523.842.531 1.402.01.68-.14 1.292-.452 1.837.297-.154.55-.383.755-.686zm2.872-3.568a3.676 3.676 0 01-.903.824c-.327.214-.65.324-.97.329a.863.863 0 01-.528-.157 1.81 1.81 0 00-.011.225c.006.44.18.657.52.652.46-.007.979-.4 1.557-1.178a4.74 4.74 0 00.629-1.104 3.84 3.84 0 01-.294.41zM60.6 8.964a3.64 3.64 0 00-.33.02c-.1.001-.225.013-.374.035.01.07.017.125.017.165l.002.12a6.003 6.003 0 011.482-.217c.17-.002.33.005.48.023a4.482 4.482 0 00-1.277-.146zm2.199.567a5.4 5.4 0 00-.802.582 3.454 3.454 0 00-.28.26 9.303 9.303 0 011.28-.604 1.374 1.374 0 00-.198-.238zm-4.738 7.196c-.206.323-.306.65-.3.98.001.14.023.264.065.373l-.002-.105c-.006-.45.121-.942.383-1.476a3.918 3.918 0 00-.146.228zm1.024 2.265c-.34.005-.631-.056-.873-.182l.045.044c.173.168.36.25.56.247.22-.003.438-.052.657-.145-.13.022-.26.034-.39.036zm.631-9.94a.39.39 0 00-.12.016l-.269.064c.072.08.133.173.185.283l.224-.064-.002-.12-.001-.06c0-.03-.006-.07-.017-.12zm1.269 4.572c.211.086.407.189.59.306a1.002 1.002 0 00-.47-.338l-.12.031zm-6.304-1.228a2.137 2.137 0 00-.408-.144c.031.05.052.104.063.164.12-.012.235-.019.345-.02zm5.043-2.82a.87.87 0 00-.15.048c.032.09.054.214.066.374.028-.15.056-.291.084-.421zm7.715 7.253c-.343.455-.7.686-1.07.691a.654.654 0 01-.12-.013l-.073.106.09-.002c.18-.002.383-.07.611-.204a3.145 3.145 0 00.755-.686c.02-.02.045-.03.075-.03.07-.002.105.028.106.088 0 .02-.044.075-.132.167-.089.091-.192.192-.31.304-.395.376-.807.567-1.237.573l-.12.002c-.325.355-.632.595-.92.719a2.26 2.26 0 01-.867.192.696.696 0 01-.544-.247.898.898 0 01-.234-.611c-.006-.4.113-.827.356-1.28.243-.464.602-.91 1.075-1.336a6.617 6.617 0 011.202-.918c.386-.226.71-.34.97-.344.16-.003.28.05.362.16a.835.835 0 01.172.447c.012.16-.025.365-.111.617a6.489 6.489 0 01-.348.785c-.146.282-.307.564-.483.847a10.9 10.9 0 01-.337.545l.09-.001c.3-.005.617-.22.95-.644l.092.073zm-.617-1.16c-.003-.19-.09-.285-.26-.282-.33.005-.819.407-1.467 1.207-.638.799-.96 1.369-.964 1.709 0 .08.017.145.047.194.04.03.091.044.151.043.23-.003.46-.067.687-.19l.09-.061a4.1 4.1 0 00.606-.594.34.34 0 01-.079-.224c-.001-.1.012-.2.04-.3.04-.101.088-.192.147-.273a.9.9 0 01.192-.198.34.34 0 01.224-.093.37.37 0 01.165.057l.132-.197c.195-.342.291-.609.288-.799zm.194-.004a4.93 4.93 0 00.246-.603c.078-.201.12-.392.127-.572a.242.242 0 00-.078-.21.288.288 0 00-.211-.086.532.532 0 00-.21.048.94.94 0 00-.237.168 3.751 3.751 0 00-.326.305c-.118.132-.26.3-.427.502a9.1 9.1 0 00-.31.364c.337-.205.665-.31.986-.314.25-.004.377.134.38.414a.446.446 0 01-.013.12.584.584 0 00.073-.136zm5.13.255c-.442.577-.88 1.033-1.315 1.37a7.02 7.02 0 01-.773.506c.062.15.095.319.098.509.001.11-.007.215-.026.315-.008.1-.026.22-.054.36.11-.02.2-.032.27-.033l.27-.004c.34-.005.615.026.826.093.22.067.332.155.334.265 0 .07-.029.105-.089.106-.04 0-.085-.023-.136-.073a1.03 1.03 0 00-.407-.159 2.622 2.622 0 00-.571-.052l-.24.004-.314.05c-.115.351-.25.688-.405 1.01-.145.323-.32.636-.526.938a8.12 8.12 0 01-.676.925c-.256.304-.546.619-.872.943-.571.569-1.13 1.012-1.675 1.33-.555.328-1.043.495-1.462.502a.782.782 0 01-.605-.277.906.906 0 01-.264-.64c-.007-.44.126-.888.4-1.342.263-.444.642-.874 1.136-1.291a9.238 9.238 0 011.41-.951c.127-.222.309-.455.545-.698.552-.569 1.309-1.09 2.272-1.564-.013-.23-.101-.403-.263-.521a.98.98 0 01-.283.11 7.462 7.462 0 01-.562.577c-.168.133-.312.2-.432.202-.09.001-.135-.048-.137-.148-.003-.22.213-.453.65-.7v-.045c-.003-.14.12-.212.37-.215.03 0 .066.004.106.013.06-.05.109-.097.148-.137l.133-.137c.05-.05.103-.107.163-.167.059-.071.137-.162.236-.274.118-.132.216-.243.295-.334.088-.102.177-.198.265-.29.089-.1.192-.207.31-.319.129-.112.287-.254.474-.427l.208-.183c0-.03.004-.06.013-.09a1.293 1.293 0 00-.018-.21l-.21.003a.771.771 0 01-.195-.012l-.286-.026a4.218 4.218 0 00-.295.305c-.098.121-.324.43-.676.925l-.091-.074c.411-.566.656-.895.735-.986a3.48 3.48 0 01.177-.197l-.376-.055a.955.955 0 00-.15-.013.409.409 0 00-.09-.013c-.04 0-.085.02-.134.061l-.365.681c-.156.292-.329.44-.519.443-.11.001-.166-.058-.167-.178-.003-.15.08-.326.247-.529a3.95 3.95 0 01.71-.64l.455-.712c.049-.08.113-.121.193-.123.03 0 .045.015.046.045 0 .02-.01.045-.03.075a.961.961 0 00-.058.106c-.059.08-.117.172-.176.273-.039.06-.068.11-.087.15.198-.102.367-.17.507-.202s.314-.05.524-.052c.12-.002.245.006.375.024.14.018.296.05.467.098.09.029.145.048.166.058l.105-.002c.03 0 .07-.016.119-.046.226-.244.399-.411.517-.503a.647.647 0 01.358-.14c.07-.001.106.038.107.118a.291.291 0 01-.028.136.557.557 0 01-.132.152 6.579 6.579 0 01-.713.445l-.548.563c.011.07.018.145.019.225-.042.55-.384 1.076-1.027 1.575a6.08 6.08 0 01-.847.553.663.663 0 01.304.25c.04.05.077.1.107.149.209-.123.456-.277.744-.461a7.068 7.068 0 001.3-1.37l.09.074zm-6.502 5.646a7.393 7.393 0 00-1.164 1.412c-.303.485-.452.912-.446 1.282a.39.39 0 00.124.283.373.373 0 00.272.116c.26-.004.588-.153.983-.45a8.693 8.693 0 001.228-1.187c.433-.487.864-1.043 1.295-1.67.127-.201.25-.398.366-.59-.522.538-1.038.81-1.548.818-.32.005-.483-.183-.488-.563a8.16 8.16 0 00-.622.55zm1.616-1.269a8.809 8.809 0 00-.831.582.438.438 0 00-.014.106c-.005.32.107.478.337.475.36-.006.826-.322 1.396-.95a5.96 5.96 0 00.765-1.047 7.73 7.73 0 00-1.653.834zm2.039-2.13c-.665.35-1.25.738-1.753 1.166-.366.295-.642.58-.828.852.04-.02.085-.041.135-.062a12.6 12.6 0 012.177-.887c.184-.383.273-.739.269-1.069zm1.003-2.115c-.177.173-.32.315-.428.427a8.329 8.329 0 00-.281.274 4.917 4.917 0 00-.237.228l-.251.259a.79.79 0 01.12-.017l.075-.001a.56.56 0 01.135.013 4.81 4.81 0 00.696-.61c.354-.375.599-.754.733-1.136-.188.183-.375.37-.562.563zm-.725 1.706a.365.365 0 00-.108-.268.262.262 0 00-.137-.073c-.07.03-.139.057-.208.078.161.097.254.266.277.506.05-.021.104-.047.164-.078a.994.994 0 00.013-.165zm-.11.617c.028-.11.052-.211.07-.301a.587.587 0 00-.12.046c.003.16-.004.316-.022.466.029-.07.053-.141.072-.211zm1.984-3.75a.378.378 0 00-.09.046l.016.03.074-.076zm-2.419 2.796h.015c.02 0 .04-.006.06-.016h-.03l-.045.016zm7.312-1.322c-.962 1.224-1.653 1.839-2.073 1.845h-.015c-.058.131-.082.232-.07.302.001.11.062.164.182.162.18-.003.443-.157.788-.462.346-.305.768-.806 1.268-1.504.068-.1.123-.126.164-.077.05.04.046.1-.013.18l-.588.774c-.343.455-.658.78-.946.974-.277.194-.52.293-.73.296a.652.652 0 01-.483-.188.829.829 0 01-.218-.492 1.83 1.83 0 01.012-.225c.019-.09.057-.206.115-.347a6.91 6.91 0 01.292-.56c.097-.17.219-.373.366-.605l-1.035.015c-.167.253-.372.54-.617.864-.167.233-.329.45-.486.653l-.498.817-.014.045c-.01.01-.035.016-.075.016l-.854.028c-.06 0-.096-.014-.106-.043 0-.02.02-.05.059-.091l2.198-3.498c-.257.234-.41.351-.46.352-.04-.01.008-.09.146-.242.187-.203.355-.346.504-.428l.425-.681c.029-.06.073-.091.133-.092l.81-.027c.01 0 .02.01.03.03.01.02.016.034.016.044l-.761 1.242c-.018.16-.06.316-.128.467l1.065-.001c.146-.232.313-.485.499-.757l.66-.955c.04-.06.089-.091.149-.092l.81-.027c.02 0 .03.01.03.03 0 .05-.058.155-.175.317l-2.2 3.348a3.91 3.91 0 00-.22.333c.39-.006 1.04-.61 1.953-1.814l.09.074zm-1.758-.2h-1.05c-.04.051-.079.112-.118.182l1.05-.015c.04-.05.078-.106.117-.167zm5.674.382c0 .03-.053.136-.16.318-.097.181-.264.393-.5.637-.414.436-.82.757-1.216.963a4.75 4.75 0 01-.507.202.894.894 0 01-.374.096h-.06l-.09.002a.838.838 0 01-.68-.32c-.183-.227-.277-.511-.282-.85-.013-.87.445-1.678 1.374-2.421a4.49 4.49 0 01.564-.414 5.02 5.02 0 01.58-.338 3.18 3.18 0 01.521-.233c.16-.062.294-.094.404-.096.18-.002.326.05.437.159a.52.52 0 01.171.402c.003.2-.079.417-.245.649a2 2 0 01-.637.55 3.807 3.807 0 01-.67.294 10.14 10.14 0 01-1.295.71c-.382.565-.57.988-.566 1.268.002.17.04.3.11.388a.497.497 0 00.272.071c.14-.002.324-.055.552-.158.08-.031.16-.067.239-.108.425-.337.93-.93 1.518-1.778l.107.089c-.392.555-.75 1.006-1.075 1.35.257-.183.509-.397.755-.64.266-.265.497-.548.693-.85.02-.021.034-.021.045-.002.01.01.015.025.015.045v.015zm-.591-1.446c-.002-.11-.063-.164-.183-.163-.19.003-.496.223-.92.659-.197.213-.374.415-.53.608.159-.043.323-.105.491-.187.258-.134.496-.288.714-.46.158-.133.3-.275.428-.427v-.03zm.32-.635c-.002-.14-.073-.209-.213-.207-.23.003-.522.183-.877.538a127.6 127.6 0 01-.31.35c.327-.205.63-.31.91-.314.15-.002.247.047.288.146.137-.192.205-.363.202-.513zm-2.101 1.936a4.543 4.543 0 00-.19.273l.684-.37-.494.097zm5.59.458c-.392.526-.74.936-1.046 1.23.06-.04.123-.086.193-.137.336-.275.674-.69 1.016-1.245.06-.061.104-.092.134-.092.06-.001.085.018.076.059-.146.312-.326.6-.543.863a4.24 4.24 0 01-.695.655 3.107 3.107 0 01-.743.43 1.772 1.772 0 01-.734.117.976.976 0 01-.71-.365c-.194-.237-.293-.53-.299-.88-.008-.59.287-1.225.887-1.904.187-.213.394-.41.621-.594.237-.194.475-.362.713-.506.238-.143.471-.256.7-.34a1.92 1.92 0 01.613-.129c.14-.002.26.056.363.175a.58.58 0 01.156.403c.002.15-.026.3-.084.45a1.434 1.434 0 01-.204.394 1.044 1.044 0 01-.46.367.872.872 0 01-.174.362c-.127.162-.261.244-.401.246-.17.003-.256-.076-.259-.236-.002-.15.106-.287.324-.41a.99.99 0 00.104-.061.315.315 0 01-.047-.165l-.002-.12c-.32.055-.73.381-1.23.978-.54.658-.808 1.212-.8 1.662.001.15.028.27.08.36l.014-.001c.172.087.392.1.661.035.07-.02.144-.047.224-.078.386-.266.873-.798 1.461-1.597l.091.074zm-.385-1.69a1.4 1.4 0 01.207-.227c.098-.092.227-.209.385-.351.108-.092.162-.173.161-.243-.002-.12-.073-.178-.213-.177-.18.003-.438.142-.774.417a6.73 6.73 0 00-1.003 1.095c-.06.07-.118.147-.177.227.484-.377.927-.578 1.326-.604a.788.788 0 01.088-.136zm4.57 1.269c0 .03-.053.136-.16.317-.098.182-.264.394-.5.638-.414.436-.82.757-1.217.962-.178.083-.347.15-.507.203a.893.893 0 01-.373.095l-.06.001-.09.002a.838.838 0 01-.68-.32c-.183-.228-.278-.512-.283-.852-.013-.87.445-1.676 1.374-2.42.178-.152.366-.29.564-.413.198-.133.392-.246.58-.339.189-.103.362-.18.522-.232.159-.063.293-.095.403-.096a.59.59 0 01.438.158.52.52 0 01.17.403c.004.2-.078.416-.245.649a2.002 2.002 0 01-.636.549 3.801 3.801 0 01-.671.295 10.14 10.14 0 01-1.295.709c-.381.565-.57.988-.566 1.268.003.17.04.3.111.389a.49.49 0 00.271.07c.14-.001.324-.054.553-.157.08-.032.159-.068.238-.109.425-.336.931-.929 1.519-1.777l.106.088c-.392.556-.75 1.006-1.075 1.351.258-.184.51-.398.756-.641a5.04 5.04 0 00.692-.85c.02-.02.035-.02.045-.001.01.01.015.025.016.045v.015zm-.592-1.447c-.001-.11-.062-.164-.182-.162-.19.003-.497.222-.92.658-.197.213-.374.416-.531.608a2.66 2.66 0 00.492-.187c.258-.134.496-.287.713-.46.158-.133.301-.275.429-.427v-.03zm.32-.635c-.001-.14-.072-.208-.212-.207-.23.004-.523.183-.877.538l-.31.35c.327-.205.63-.31.91-.313.15-.003.246.046.287.146.138-.193.205-.364.203-.514zm-2.1 1.936a4.58 4.58 0 00-.191.273c.248-.133.476-.257.684-.37-.16.033-.324.065-.493.097zm6.766-.159c-.962 1.225-1.653 1.84-2.073 1.846h-.015c-.058.13-.081.231-.07.301.001.11.062.164.182.162.18-.002.443-.156.788-.461.346-.305.768-.806 1.268-1.504.069-.1.123-.127.164-.077.05.039.046.099-.012.18l-.589.774c-.343.455-.658.78-.946.974-.277.194-.52.292-.73.295a.653.653 0 01-.483-.188.83.83 0 01-.217-.492 1.78 1.78 0 01.011-.225c.019-.09.057-.206.115-.346.068-.151.165-.338.292-.56.097-.171.22-.373.366-.605l-1.035.015c-.166.252-.372.54-.617.864-.167.233-.329.45-.486.652l-.498.818-.014.045c-.01.01-.035.015-.075.016l-.854.027c-.06.001-.096-.013-.106-.043 0-.02.02-.05.059-.09l2.198-3.498c-.257.233-.41.35-.46.351-.04-.009.009-.09.146-.242.187-.202.355-.345.504-.427l.425-.681c.029-.06.074-.092.133-.093l.81-.026c.01 0 .02.01.03.03.011.02.016.034.016.044l-.761 1.241c-.018.16-.06.316-.128.467h1.065c.146-.233.313-.485.499-.758l.66-.955c.04-.06.09-.09.15-.092l.809-.027c.02 0 .03.01.03.03.001.05-.058.156-.175.318l-2.2 3.347a3.914 3.914 0 00-.22.333c.39-.005 1.04-.61 1.953-1.813l.09.073zm-1.758-.199h-1.05c-.04.051-.079.111-.118.182l1.05-.015c.04-.05.079-.106.118-.167zm5.976.482c-.694 1.05-1.266 1.58-1.716 1.586a.39.39 0 01-.12-.013.687.687 0 00-.057.21c.001.13.057.18.167.148.14-.042.312-.16.52-.353.217-.193.424-.396.62-.609.197-.213.37-.4.517-.563.148-.172.231-.258.251-.258.05-.001.076.019.076.059 0 .02-.024.065-.073.136a9.94 9.94 0 00-.191.243 7.232 7.232 0 01-.28.304 11.8 11.8 0 01-.325.35 4.845 4.845 0 01-.666.654c-.198.143-.386.216-.567.219a.58.58 0 01-.407-.144.527.527 0 01-.156-.388 1.32 1.32 0 01.055-.391 2.33 2.33 0 01.16-.362l-.002-.09-.634.729c-.207.233-.39.4-.548.503a.827.827 0 01-.463.157.528.528 0 01-.453-.218c-.112-.149-.17-.348-.174-.598-.007-.48.323-1.155.99-2.025l.368-.485-.462.247 1.257-1.279c.078-.111.132-.172.162-.182.04-.02.11-.037.21-.048l.614-.04c.07 0 .105.02.106.06 0 .01-.02.05-.059.12l-1.19 1.653c-.007.21-.099.421-.276.634a16.38 16.38 0 00-.677.865 1.406 1.406 0 00-.207.228l-.043.09a.731.731 0 00-.044.076c-.01.04-.009.08.002.12.052.12.147.178.287.176.19-.003.423-.141.7-.416l.161-.197c.099-.121.187-.228.266-.319l.074-.076c.088-.121.176-.248.264-.379l.867-1.243.778-1.121.103-.152c.029-.05.053-.08.073-.09a.502.502 0 01.15-.018l.6-.039c.06 0 .09.024.09.074 0 .02-.004.035-.014.045l-1.775 2.681a8.91 8.91 0 00-.586.954 1.675 1.675 0 00-.13.272l.09-.001c.4-.006.927-.524 1.581-1.554l.136.058zm-3.874 1.752c.002.11.062.165.182.163.11-.002.303-.125.58-.369a.81.81 0 01-.3.065c-.18.002-.31-.06-.392-.19a1.061 1.061 0 00-.07.331zm7.911-1.916c0 .03-.053.136-.16.318-.098.181-.264.393-.5.637-.414.436-.82.757-1.217.963-.178.083-.347.15-.507.202a.894.894 0 01-.373.096h-.06l-.09.002a.838.838 0 01-.68-.32c-.183-.227-.278-.511-.283-.85-.013-.87.445-1.678 1.374-2.421a4.64 4.64 0 01.564-.414c.198-.133.392-.245.58-.338.189-.103.363-.18.522-.233a1.21 1.21 0 01.403-.096.59.59 0 01.438.159.524.524 0 01.171.402c.003.2-.079.417-.246.649a1.993 1.993 0 01-.636.55 3.81 3.81 0 01-.671.294c-.337.225-.768.462-1.295.71-.381.565-.57.988-.566 1.268.003.17.04.3.111.388a.49.49 0 00.271.071c.14-.002.324-.055.553-.158.08-.031.159-.067.238-.108.425-.337.931-.93 1.519-1.778l.106.089c-.392.555-.75 1.006-1.075 1.35.258-.183.51-.397.756-.64a5.12 5.12 0 00.692-.85c.02-.021.035-.021.045-.002.01.01.015.025.016.045v.015zm-.592-1.446c-.001-.11-.062-.164-.182-.163-.19.003-.497.223-.92.659-.197.213-.374.415-.531.608a2.81 2.81 0 00.492-.187 4.44 4.44 0 00.713-.46c.158-.133.301-.275.429-.427v-.03zm.321-.635c-.002-.14-.073-.209-.213-.207-.23.003-.523.183-.877.538l-.31.35c.327-.205.63-.31.91-.314.15-.002.246.047.287.146.138-.192.205-.363.203-.513zm-2.101 1.936a4.545 4.545 0 00-.191.273l.684-.37c-.16.032-.324.065-.493.097zm8.624-6.322l-.195.018c-.23.003-.346-.095-.349-.295-.002-.15.076-.291.234-.424a.76.76 0 01.506-.217c.27-.004.407.109.411.339.004.27-.172.557-.528.863a4.511 4.511 0 01-.282.199 3.354 3.354 0 01-.312.2 6.502 6.502 0 01-.283.139.58.58 0 01-.164.047c-.03 0-.045-.01-.045-.03-.001-.02.019-.045.058-.075.278-.164.481-.297.609-.4.129-.111.247-.238.355-.38l-.015.016zm-1.2.017l-.195.018c-.23.004-.346-.095-.349-.295-.002-.15.076-.29.234-.423a.764.764 0 01.507-.218c.269-.003.406.11.41.34.004.27-.172.557-.528.862a4.516 4.516 0 01-.282.2 3.354 3.354 0 01-.312.2 6.502 6.502 0 01-.283.138.58.58 0 01-.164.048c-.03 0-.045-.01-.045-.03-.001-.02.019-.045.059-.076.277-.164.48-.297.609-.399a2.52 2.52 0 00.354-.38l-.015.015z" fill="#fff"/></g><path stroke="#fff" d="M50.27 26.221h53"/><path d="M52.178 32.041v2.68h-.395v-1.71c0-.07.002-.143.005-.22l.02-.225h-.015l-.875 2.155h-.37l-.85-2.155h-.015c.01.15.015.304.015.46v1.695h-.395v-2.68h.585l.845 2.155.86-2.155h.585zm2.12-.045c.327 0 .57.072.726.215.156.144.235.372.235.685v1.825h-.32l-.085-.38h-.02c-.117.147-.24.255-.37.325-.127.07-.304.105-.53.105a.944.944 0 01-.605-.19c-.16-.13-.24-.331-.24-.605a.7.7 0 01.315-.615c.21-.146.533-.226.97-.24l.455-.015v-.16c0-.223-.049-.378-.145-.465-.097-.086-.234-.13-.41-.13-.14 0-.274.022-.4.065a2.65 2.65 0 00-.355.14l-.135-.33c.116-.063.255-.116.415-.16.16-.046.326-.07.5-.07zm.526 1.415l-.395.015c-.334.014-.565.067-.695.16a.462.462 0 00-.19.395c0 .15.045.26.135.33.093.07.211.105.355.105a.86.86 0 00.565-.185c.15-.126.225-.32.225-.58v-.24zm3.148-1.37v.37h-1.196v2.31h-.44v-2.68h1.636zm1.793-.045c.326 0 .568.072.725.215.156.144.235.372.235.685v1.825h-.32l-.085-.38h-.02c-.117.147-.24.255-.37.325-.127.07-.304.105-.53.105a.944.944 0 01-.605-.19c-.16-.13-.24-.331-.24-.605a.7.7 0 01.315-.615c.21-.146.533-.226.97-.24l.455-.015v-.16c0-.223-.049-.378-.145-.465-.097-.086-.234-.13-.41-.13-.14 0-.274.022-.4.065a2.65 2.65 0 00-.355.14l-.135-.33c.116-.063.255-.116.415-.16.16-.046.326-.07.5-.07zm.525 1.415l-.395.015c-.334.014-.565.067-.695.16a.462.462 0 00-.19.395c0 .15.045.26.135.33.093.07.211.105.355.105a.86.86 0 00.565-.185c.15-.126.225-.32.225-.58v-.24zm2.217-1.42c.307 0 .55.062.73.185.184.12.275.294.275.52a.55.55 0 01-.135.39.796.796 0 01-.37.205v.02c.107.03.205.072.295.125a.601.601 0 01.3.545.705.705 0 01-.28.565c-.183.15-.471.225-.865.225a2.49 2.49 0 01-.525-.05 1.453 1.453 0 01-.39-.125v-.395c.114.054.247.102.4.145.157.044.327.065.51.065.2 0 .369-.033.505-.1.14-.07.21-.188.21-.355 0-.3-.255-.45-.765-.45h-.36v-.36h.29c.23 0 .414-.03.55-.09.14-.063.21-.17.21-.32a.31.31 0 00-.16-.285c-.103-.063-.253-.095-.45-.095a1.53 1.53 0 00-.39.045 2.38 2.38 0 00-.365.125l-.155-.35c.28-.123.592-.185.935-.185zm2.411.05v1.635a4.803 4.803 0 01-.02.42c-.003.08-.006.144-.01.19l1.435-2.245h.54v2.68h-.41v-1.79l.01-.255a5.56 5.56 0 01.01-.195l-1.424 2.24h-.546v-2.68h.415zm3.488 0v1.115h1.455v-1.115h.44v2.68h-.44v-1.195h-1.455v1.195h-.44v-2.68h.44zm5.857-.05c.33 0 .595.115.795.345.203.23.305.577.305 1.04 0 .457-.102.804-.305 1.04-.2.237-.467.355-.8.355-.207 0-.379-.038-.515-.115a1.07 1.07 0 01-.315-.275h-.03a5.739 5.739 0 01.03.44v1.1h-.44v-3.88h.36l.06.365h.02a1.03 1.03 0 01.315-.295c.13-.08.303-.12.52-.12zm-.08.37c-.274 0-.467.077-.58.23-.11.154-.168.387-.175.7v.085c0 .33.053.585.16.765.11.177.312.265.605.265a.587.587 0 00.4-.135.782.782 0 00.235-.365c.053-.156.08-.335.08-.535 0-.306-.06-.551-.18-.735-.117-.183-.298-.275-.545-.275zm2.546-.32v1.635a5.68 5.68 0 01-.02.42 6.41 6.41 0 01-.01.19l1.435-2.245h.54v2.68h-.41v-1.79l.01-.255a5.82 5.82 0 01.01-.195l-1.425 2.24h-.545v-2.68h.415zm4.898.37h-.875v2.31h-.435v-2.31h-.865v-.37h2.175v.37zm.358-.37h.47l.58 1.525c.05.134.095.262.135.385.04.12.07.235.09.345h.02c.02-.083.052-.191.095-.325.043-.136.088-.273.135-.41l.545-1.52h.475l-1.155 3.05a1.647 1.647 0 01-.365.605c-.147.15-.35.225-.61.225-.08 0-.15-.005-.21-.015a1.382 1.382 0 01-.155-.025v-.35c.037.007.08.014.13.02.053.007.108.01.165.01a.522.522 0 00.37-.13.854.854 0 00.225-.345l.14-.355-1.08-2.69zm4.234-.045c.326 0 .568.072.725.215.156.144.235.372.235.685v1.825h-.32l-.085-.38h-.02c-.117.147-.24.255-.37.325-.127.07-.304.105-.53.105a.944.944 0 01-.605-.19c-.16-.13-.24-.331-.24-.605a.7.7 0 01.315-.615c.21-.146.533-.226.97-.24l.455-.015v-.16c0-.223-.049-.378-.145-.465-.097-.086-.234-.13-.41-.13-.14 0-.274.022-.4.065a2.65 2.65 0 00-.355.14l-.135-.33c.116-.063.255-.116.415-.16.16-.046.326-.07.5-.07zm.525 1.415l-.395.015c-.334.014-.565.067-.695.16a.462.462 0 00-.19.395c0 .15.045.26.135.33.093.07.211.105.355.105a.86.86 0 00.565-.185c.15-.126.225-.32.225-.58v-.24zm3.552 1.31h-.445v-2.315h-.79a10.163 10.163 0 01-.18 1.365c-.076.344-.178.594-.305.75a.592.592 0 01-.48.235.85.85 0 01-.13-.01.275.275 0 01-.1-.025v-.33a.5.5 0 00.135.02c.18 0 .324-.191.43-.575.11-.383.194-.981.25-1.795h1.615v2.68zm1.541-1.58h.795c.697 0 1.045.254 1.045.76a.76.76 0 01-.255.6c-.17.147-.44.22-.81.22h-1.215v-2.68h.44v1.1zm1.4.785c0-.163-.058-.273-.175-.33-.113-.06-.273-.09-.48-.09h-.745v.86h.755a.94.94 0 00.46-.1c.123-.066.185-.18.185-.34zm1.819-1.885v1.115h1.455v-1.115h.44v2.68h-.44v-1.195h-1.455v1.195h-.44v-2.68h.44zm2.993 2.68v-2.68h.44v1.1h.695c.347 0 .604.064.77.19.167.127.25.317.25.57 0 .25-.081.45-.245.6-.163.147-.428.22-.795.22H98.05zm2.6 0v-2.68h.44v2.68h-.44zm-2.16-.355h.635c.19 0 .345-.031.465-.095.12-.066.18-.181.18-.345 0-.163-.055-.273-.165-.33-.11-.06-.268-.09-.475-.09h-.64v.86zm4.337-1.015l-.925-1.31h.5l.69 1.01.685-1.01h.495l-.925 1.31.975 1.37h-.5l-.73-1.07-.74 1.07h-.495l.97-1.37zm-32.827 4.69h.47l.58 1.525c.05.134.094.262.134.385.04.12.07.235.09.345h.02a4.52 4.52 0 01.095-.325l.135-.41.546-1.52h.474l-1.155 3.05a1.646 1.646 0 01-.365.605c-.146.15-.35.225-.61.225-.08 0-.15-.005-.21-.015a1.386 1.386 0 01-.154-.025v-.35a1.84 1.84 0 00.295.03.522.522 0 00.37-.13.852.852 0 00.225-.345l.14-.355-1.08-2.69zm4.293 2.73a1.36 1.36 0 01-.635-.145 1.033 1.033 0 01-.435-.45c-.103-.203-.155-.463-.155-.78 0-.33.055-.598.165-.805.11-.206.259-.358.445-.455a1.41 1.41 0 01.645-.145c.137 0 .269.015.395.045.127.027.23.06.31.1l-.135.365a2.614 2.614 0 00-.28-.085 1.239 1.239 0 00-.3-.04c-.526 0-.79.339-.79 1.015 0 .324.064.572.19.745.13.17.322.255.575.255.147 0 .275-.015.385-.045.114-.03.217-.066.31-.11v.39c-.09.047-.19.082-.3.105a1.63 1.63 0 01-.39.04zm3.618-.05h-.445v-2.315h-.79a10.163 10.163 0 01-.18 1.365c-.077.344-.179.594-.305.75a.592.592 0 01-.48.235.85.85 0 01-.13-.01.275.275 0 01-.1-.025v-.33a.5.5 0 00.135.02c.18 0 .323-.191.43-.575.11-.383.193-.981.25-1.795h1.615v2.68zm.68-2.68h.47l.58 1.525c.05.134.095.262.135.385.04.12.07.235.09.345h.02a4.52 4.52 0 01.095-.325l.135-.41.545-1.52h.475l-1.155 3.05a1.646 1.646 0 01-.365.605c-.146.15-.35.225-.61.225-.08 0-.15-.005-.21-.015a1.386 1.386 0 01-.155-.025v-.35c.037.007.08.014.13.02.054.007.109.01.165.01a.522.522 0 00.37-.13.852.852 0 00.225-.345l.14-.355-1.08-2.69zm4.854 0v.37H82.25v2.31h-.44v-2.68h1.635z" fill="#F1F1F1"/><g clip-path="url(#clip0)" fill="#fff"><path d="M21.221 0c-4.332 0-8.704 1.153-8.704 3.73s4.372 3.73 8.704 3.73c4.333 0 8.704-1.153 8.704-3.73S25.554 0 21.221 0zm0 4.974c-3.436 0-5.52-.784-6.104-1.244.584-.46 2.667-1.243 6.104-1.243 3.437 0 5.52.784 6.105 1.243-.584.46-2.668 1.244-6.105 1.244zM41.2 14.921H31.168c-1.327 0-2.6.304-3.744.85a6.224 6.224 0 00-6.204-5.824c-3.296 0-6 2.579-6.203 5.824a8.672 8.672 0 00-3.744-.85H1.244c-.687 0-1.244.557-1.244 1.244 0 2.003.964 3.782 2.487 4.936v.037c0 2.028.99 3.84 2.57 4.998a6.224 6.224 0 006.217 6.193h1.014a29.591 29.591 0 01-1.28 5.735l-.914 2.742a1.244 1.244 0 001.18 1.637h19.895a1.244 1.244 0 001.18-1.637l-.914-2.742a29.602 29.602 0 01-1.28-5.735h1.014a6.224 6.224 0 006.217-6.217v-.003a6.211 6.211 0 002.487-4.947c1.586-1.162 2.57-2.977 2.57-4.997 0-.687-.557-1.244-1.244-1.244zm-19.98-2.487a3.735 3.735 0 013.73 3.73 3.735 3.735 0 01-3.73 3.731 3.735 3.735 0 01-3.73-3.73 3.735 3.735 0 013.73-3.73zm3.426 10.98L21.22 26.84l-3.426-3.425a6.18 6.18 0 013.426-1.033 6.18 6.18 0 013.426 1.032zM12.49 29.842h-1.217a3.737 3.737 0 01-3.517-2.486H9.21a1.244 1.244 0 000-2.487h-.424c-1.624 0-3.05-1.055-3.587-2.487h3.587a1.243 1.243 0 100-2.487H6.3c-1.624 0-3.05-1.054-3.586-2.487h8.56a6.233 6.233 0 015.652 3.623c-.65.37-1.249.823-1.78 1.342a1.275 1.275 0 00-.15.15 8.675 8.675 0 00-2.479 6.076c0 .414-.009.829-.026 1.243zm3.45 10.114h-2.942l.368-1.106c1.071-3.212 1.637-6.757 1.637-10.251a6.18 6.18 0 011.033-3.426l3.94 3.941v3.872c0 2.868-1.61 5.632-4.036 6.97zm3.902 0a10.49 10.49 0 001.378-1.998c.382.718.844 1.39 1.378 1.998h-2.756zm6.659 0c-2.426-1.338-4.037-4.102-4.037-6.97v-3.872l3.94-3.941a6.18 6.18 0 011.034 3.426c0 3.494.565 7.039 1.636 10.251l.369 1.106h-2.942zm9.64-20.061h-2.486c-.687 0-1.244.557-1.244 1.243 0 .687.557 1.235 1.244 1.235h3.517a3.744 3.744 0 01-3.517 2.496h-.425c-.687 0-1.243.556-1.243 1.243s.556 1.235 1.243 1.235h1.455a3.744 3.744 0 01-3.517 2.495H29.95a30.318 30.318 0 01-.026-1.243 8.674 8.674 0 00-2.478-6.076 1.266 1.266 0 00-.15-.15 8.756 8.756 0 00-1.78-1.342 6.24 6.24 0 015.652-3.631h8.56c-.537 1.432-1.963 2.495-3.587 2.495z"/></g><defs><clipPath id="clip0"><path fill="#fff" d="M0 0h42.443v42.443H0z"/></clipPath><filter id="filter0_d" x="43.29" y="7.544" width="67.88" height="25.28" filterUnits="userSpaceOnUse" color-interpolation-filters="sRGB"><feFlood flood-opacity="0" result="BackgroundImageFix"/><feColorMatrix in="SourceAlpha" values="0 0 0 0 0 0 0 0 0 0 0 0 0 0 0 0 0 0 127 0"/><feOffset dy="4"/><feGaussianBlur stdDeviation="2"/><feColorMatrix values="0 0 0 0 0 0 0 0 0 0 0 0 0 0 0 0 0 0 0.25 0"/><feBlend in2="BackgroundImageFix" result="effect1_dropShadow"/><feBlend in="SourceGraphic" in2="effect1_dropShadow" result="shape"/></filter></defs></svg>