<svg width="48" height="48" viewBox="0 0 48 48" fill="none" xmlns="http://www.w3.org/2000/svg">
<path d="M42 12.042C42.006 11.75 41.986 9.112 39.4 6.572C36.854 4.072 34.286 4 34 4H13.992C13.514 4 11.006 4.126 8.576 6.604C6.072 9.156 6 11.718 6 12V18H4V24H6V36C6 37.468 6.812 38.746 8 39.442V42C8 42.5304 8.21071 43.0391 8.58579 43.4142C8.96086 43.7893 9.46957 44 10 44H12C12.5304 44 13.0391 43.7893 13.4142 43.4142C13.7893 43.0391 14 42.5304 14 42V40H34V42C34 42.5304 34.2107 43.0391 34.5858 43.4142C34.9609 43.7893 35.4696 44 36 44H38C38.5304 44 39.0391 43.7893 39.4142 43.4142C39.7893 43.0391 40 42.5304 40 42V39.446C40.6068 39.098 41.1111 38.5963 41.4623 37.9913C41.8134 37.3863 41.9989 36.6995 42 36V24H44V18H42V12.042ZM18 8H30V12H18V8ZM13 36C12.2041 35.9997 11.4409 35.6833 10.8783 35.1203C10.3157 34.5573 9.99973 33.7939 10 32.998C10.0003 32.2021 10.3167 31.4389 10.8797 30.8763C11.4427 30.3137 12.2061 29.9977 13.002 29.998C13.7979 29.9983 14.5611 30.3147 15.1237 30.8777C15.6863 31.4407 16.0023 32.2041 16.002 33C16.0017 33.7959 15.6853 34.5591 15.1223 35.1217C14.5593 35.6843 13.7959 36.0003 13 36ZM22 26H10V16H22V26ZM35 36C34.2041 35.9997 33.4409 35.6833 32.8783 35.1203C32.3157 34.5573 31.9997 33.7939 32 32.998C32.0003 32.2021 32.3167 31.4389 32.8797 30.8763C33.4427 30.3137 34.2061 29.9977 35.002 29.998C35.7979 29.9983 36.5611 30.3147 37.1237 30.8777C37.6863 31.4407 38.0023 32.2041 38.002 33C38.0017 33.7959 37.6853 34.5591 37.1223 35.1217C36.5593 35.6843 35.7959 36.0003 35 36ZM38 26H26V16H38V26Z" fill="#1C68D0"/>
</svg>
