<svg width="48" height="48" viewBox="0 0 48 48" fill="none" xmlns="http://www.w3.org/2000/svg">
<path d="M43.2002 22.44L34.0002 15.04V10C34.0492 8.98988 33.6956 8.00156 33.017 7.25173C32.3384 6.5019 31.3902 6.05176 30.3802 6H7.5802C6.57734 6.06192 5.63925 6.51647 4.96916 7.26517C4.29907 8.01387 3.95095 8.99643 4.0002 10V30C3.98164 30.7942 4.19999 31.576 4.62742 32.2456C5.05485 32.9152 5.672 33.4424 6.4002 33.76C6.03187 34.6611 5.88832 35.6383 5.98193 36.6072C6.07555 37.5762 6.40352 38.5078 6.93755 39.3217C7.47157 40.1356 8.19562 40.8074 9.0472 41.279C9.89879 41.7506 10.8523 42.008 11.8256 42.0289C12.7988 42.0497 13.7625 41.8334 14.6335 41.3987C15.5045 40.964 16.2567 40.3239 16.8251 39.5336C17.3935 38.7433 17.7611 37.8266 17.8961 36.8625C18.0312 35.8985 17.9296 34.916 17.6002 34H30.3202C29.9913 34.9063 29.8856 35.8784 30.0121 36.8342C30.1385 37.79 30.4935 38.7012 31.0468 39.4907C31.6002 40.2802 32.3356 40.9248 33.1909 41.3697C34.0462 41.8147 34.9961 42.047 35.9602 42.047C36.9243 42.047 37.8742 41.8147 38.7295 41.3697C39.5848 40.9248 40.3202 40.2802 40.8736 39.4907C41.4269 38.7012 41.7818 37.79 41.9083 36.8342C42.0348 35.8784 41.9291 34.9063 41.6002 34H42.0002C42.5306 34 43.0393 33.7893 43.4144 33.4142C43.7895 33.0391 44.0002 32.5304 44.0002 32V24C43.9941 23.6963 43.9189 23.398 43.7802 23.1277C43.6416 22.8574 43.4433 22.6222 43.2002 22.44ZM40.0002 24.96V30H34.0002V20.16L40.0002 24.96ZM14.0002 36C14.0002 36.3956 13.8829 36.7822 13.6631 37.1111C13.4434 37.44 13.131 37.6964 12.7656 37.8478C12.4001 37.9991 11.998 38.0387 11.61 37.9616C11.2221 37.8844 10.8657 37.6939 10.586 37.4142C10.3063 37.1345 10.1158 36.7781 10.0386 36.3902C9.96146 36.0022 10.0011 35.6001 10.1524 35.2346C10.3038 34.8692 10.5602 34.5568 10.8891 34.3371C11.218 34.1173 11.6046 34 12.0002 34C12.5306 34 13.0393 34.2107 13.4144 34.5858C13.7895 34.9609 14.0002 35.4696 14.0002 36ZM38.0002 36C38.0002 36.3956 37.8829 36.7822 37.6631 37.1111C37.4434 37.44 37.131 37.6964 36.7656 37.8478C36.4001 37.9991 35.998 38.0387 35.61 37.9616C35.2221 37.8844 34.8657 37.6939 34.586 37.4142C34.3063 37.1345 34.1158 36.7781 34.0386 36.3902C33.9615 36.0022 34.0011 35.6001 34.1524 35.2346C34.3038 34.8692 34.5602 34.5568 34.8891 34.3371C35.218 34.1173 35.6046 34 36.0002 34C36.5306 34 37.0393 34.2107 37.4144 34.5858C37.7895 34.9609 38.0002 35.4696 38.0002 36Z" fill="#1C68D0"/>
</svg>
