<svg width="48" height="48" viewBox="0 0 48 48" fill="none" xmlns="http://www.w3.org/2000/svg">
<path d="M7.36734 19.3089C7.98619 19.3089 8.48786 18.3758 8.48786 17.2248C8.48786 16.0737 7.98619 15.1406 7.36734 15.1406C6.7485 15.1406 6.24683 16.0737 6.24683 17.2248C6.24683 18.3758 6.7485 19.3089 7.36734 19.3089Z" fill="#1328E3"/>
<path d="M16.979 11.6629C18.2285 11.6629 19.2415 9.77885 19.2415 7.45474C19.2415 5.13064 18.2285 3.24658 16.979 3.24658C15.7295 3.24658 14.7166 5.13064 14.7166 7.45474C14.7166 9.77885 15.7295 11.6629 16.979 11.6629Z" fill="#1328E3"/>
<path d="M12.3127 11.4231C13.0922 11.4231 13.7241 10.2478 13.7241 8.79797C13.7241 7.34816 13.0922 6.17285 12.3127 6.17285C11.5333 6.17285 10.9014 7.34816 10.9014 8.79797C10.9014 10.2478 11.5333 11.4231 12.3127 11.4231Z" fill="#1328E3"/>
<path d="M18.8138 35.5406C18.466 34.5024 18.2708 33.3126 18.2477 32.0901C18.2246 30.8677 18.3744 29.6554 18.6822 28.5743L18.6734 28.5499C19.2527 26.9364 19.5614 25.0392 19.5601 23.099C19.5601 17.6625 17.1905 13.2556 14.268 13.2556C11.3451 13.2556 8.97583 17.6625 8.97583 23.099C8.97583 24.1607 9.06873 25.1812 9.23622 26.1398C9.34706 26.9875 9.52704 27.7987 9.7699 28.5451L9.74512 28.5715L13.5784 40.9214C13.9831 43.1486 15.1131 44.7537 16.4468 44.7537C18.1201 44.7537 19.4772 42.2308 19.4772 39.118C19.4772 37.7678 19.2212 36.5289 18.7952 35.5583L18.8138 35.5406Z" fill="#1328E3"/>
<path d="M9.3317 14.8968C9.95054 14.8968 10.4522 13.9637 10.4522 12.8127C10.4522 11.6616 9.95054 10.7285 9.3317 10.7285C8.71285 10.7285 8.21118 11.6616 8.21118 12.8127C8.21118 13.9637 8.71285 14.8968 9.3317 14.8968Z" fill="#1328E3"/>
<path d="M40.6327 19.3089C40.0138 19.3089 39.5121 18.3758 39.5121 17.2248C39.5121 16.0737 40.0138 15.1406 40.6327 15.1406C41.2515 15.1406 41.7532 16.0737 41.7532 17.2248C41.7532 18.3758 41.2515 19.3089 40.6327 19.3089Z" fill="#1328E3"/>
<path d="M31.021 11.6629C29.7715 11.6629 28.7585 9.77885 28.7585 7.45474C28.7585 5.13064 29.7715 3.24658 31.021 3.24658C32.2705 3.24658 33.2834 5.13064 33.2834 7.45474C33.2834 9.77885 32.2705 11.6629 31.021 11.6629Z" fill="#1328E3"/>
<path d="M35.6873 11.4231C34.9078 11.4231 34.2759 10.2478 34.2759 8.79797C34.2759 7.34816 34.9078 6.17285 35.6873 6.17285C36.4667 6.17285 37.0986 7.34816 37.0986 8.79797C37.0986 10.2478 36.4667 11.4231 35.6873 11.4231Z" fill="#1328E3"/>
<path d="M29.1862 35.5406C29.534 34.5024 29.7292 33.3126 29.7523 32.0901C29.7754 30.8677 29.6256 29.6554 29.3178 28.5743L29.3266 28.5499C28.7473 26.9364 28.4386 25.0392 28.4399 23.099C28.4399 17.6625 30.8095 13.2556 33.732 13.2556C36.6549 13.2556 39.0242 17.6625 39.0242 23.099C39.0242 24.1607 38.9313 25.1812 38.7638 26.1398C38.6529 26.9875 38.473 27.7987 38.2301 28.5451L38.2549 28.5715L34.4216 40.9214C34.0169 43.1486 32.8869 44.7537 31.5532 44.7537C29.8799 44.7537 28.5228 42.2308 28.5228 39.118C28.5228 37.7678 28.7788 36.5289 29.2048 35.5583L29.1862 35.5406Z" fill="#1328E3"/>
<path d="M38.6683 14.8968C38.0495 14.8968 37.5478 13.9637 37.5478 12.8127C37.5478 11.6616 38.0495 10.7285 38.6683 10.7285C39.2871 10.7285 39.7888 11.6616 39.7888 12.8127C39.7888 13.9637 39.2871 14.8968 38.6683 14.8968Z" fill="#1328E3"/>
</svg>
