<svg width="48" height="48" viewBox="0 0 48 48" fill="none" xmlns="http://www.w3.org/2000/svg">
<path d="M30.2 3.62012L24.54 9.28012C23 10.8401 23 13.3801 24.54 14.9401L27.36 17.7601L18.26 26.8601L12.62 21.2001L9.78003 24.0001C-0.119972 34.0001 7.00003 41.0001 7.00003 41.0001C7.00003 41.0001 14 48.0001 24 38.1801L26.82 35.3601L21.22 29.7601L30.3 20.6801L33.08 23.4601C34.64 25.0001 37.18 25.0001 38.74 23.4601L44.4 17.8001L30.2 3.62012ZM35.86 20.5601L33.1 17.8001L30.22 14.9201L27.42 12.1201L30.24 9.30012L38.7 17.7601L35.86 20.5601Z" fill="#1328E3"/>
</svg>
