<svg width="150" height="150" fill="none" xmlns="http://www.w3.org/2000/svg"><path d="M69.937 14.063c-1.625 0-3.25.374-4.813.937l-46 19.063a12.463 12.463 0 00-6.812 16.25l31 74.687a12.498 12.498 0 0011.313 7.812c1.624 0 3.312-.187 4.937-.937l46.062-19.063a12.621 12.621 0 007.688-11.25c.062-1.562-.25-3.374-.813-5l-31.25-74.687a12.213 12.213 0 00-11.312-7.813zm21.75 0l21.562 52.187V26.562a12.5 12.5 0 00-12.5-12.5h-9.062zm34.125 9.624v56.438L140.999 43.5a12.423 12.423 0 00-.032-9.54 12.447 12.447 0 00-6.78-6.71l-8.375-3.563zm-55.875 2.688l31.125 75.125-46.188 19.125L23.75 45.562" fill="#2F83AC"/></svg>