<svg width="150" height="150" fill="none" xmlns="http://www.w3.org/2000/svg"><path d="M75 100a18.75 18.75 0 01-18.75-18.75c0-7 3.813-13.125 9.375-16.313l60.688-35.124L91.75 89.686C88.625 95.814 82.312 100 75 100zm0-81.25c11.313 0 21.875 3.125 31.063 8.25l-13.126 7.563C87.5 32.437 81.25 31.25 75 31.25a50 50 0 00-50 50c0 13.813 5.563 26.312 14.625 35.312h.063a6.225 6.225 0 010 8.813c-2.438 2.437-6.438 2.437-8.876.063A62.312 62.312 0 0112.5 81.25 62.5 62.5 0 0175 18.75zm62.5 62.5c0 17.25-7 32.875-18.312 44.188a6.284 6.284 0 01-8.813-.063 6.236 6.236 0 01-1.828-4.406 6.234 6.234 0 011.828-4.407A49.681 49.681 0 00125 81.25c0-6.25-1.187-12.5-3.375-18.125L129.188 50c5.187 9.375 8.312 19.875 8.312 31.25z" fill="#2F83AC"/></svg>