<svg width="150" height="150" viewBox="0 0 150 150" fill="none" xmlns="http://www.w3.org/2000/svg">
<path d="M69.937 14.0625C68.312 14.0625 66.687 14.4375 65.1245 15L19.1245 34.0625C16.0667 35.3147 13.6314 37.7299 12.3539 40.7771C11.0764 43.8243 11.0613 47.2541 12.312 50.3125L43.312 125C44.2276 127.265 45.7872 129.213 47.7977 130.601C49.8082 131.99 52.1816 132.758 54.6245 132.812C56.2495 132.812 57.937 132.625 59.562 131.875L105.624 112.812C107.848 111.869 109.754 110.308 111.116 108.314C112.479 106.32 113.241 103.977 113.312 101.562C113.374 100 113.062 98.1875 112.499 96.5625L81.2495 21.875C80.3661 19.5876 78.8146 17.6191 76.797 16.2257C74.7793 14.8323 72.3889 14.0785 69.937 14.0625ZM91.687 14.0625L113.249 66.25V26.5625C113.249 23.2473 111.932 20.0679 109.588 17.7237C107.244 15.3795 104.065 14.0625 100.749 14.0625H91.687ZM125.812 23.6875V80.125L140.999 43.5C141.622 41.986 141.94 40.364 141.934 38.7271C141.929 37.0901 141.6 35.4703 140.967 33.9606C140.334 32.4509 139.409 31.081 138.246 29.9294C137.082 28.7779 135.703 27.8673 134.187 27.25L125.812 23.6875ZM69.937 26.375L101.062 101.5L54.8745 120.625L23.7495 45.5625" fill="#2F83AC"/>
</svg>
