<svg width="150" height="150" viewBox="0 0 150 150" fill="none" xmlns="http://www.w3.org/2000/svg">
<path d="M75 100C70.0272 100 65.2581 98.0246 61.7418 94.5083C58.2255 90.992 56.25 86.2228 56.25 81.25C56.25 74.25 60.0625 68.125 65.625 64.9375L126.313 29.8125L91.75 89.6875C88.625 95.8125 82.3125 100 75 100ZM75 18.75C86.3125 18.75 96.875 21.875 106.063 27L92.9375 34.5625C87.5 32.4375 81.25 31.25 75 31.25C61.7392 31.25 49.0215 36.5178 39.6447 45.8947C30.2679 55.2715 25 67.9892 25 81.25C25 95.0625 30.5625 107.562 39.625 116.562H39.6875C42.125 119 42.125 122.938 39.6875 125.375C37.25 127.812 33.25 127.812 30.8125 125.438C24.9999 119.642 20.3898 112.754 17.2471 105.171C14.1045 97.5879 12.4912 89.4585 12.5 81.25C12.5 64.674 19.0848 48.7768 30.8059 37.0558C42.5269 25.3348 58.424 18.75 75 18.75ZM137.5 81.25C137.5 98.5 130.5 114.125 119.188 125.438C116.75 127.812 112.813 127.812 110.375 125.375C109.796 124.797 109.336 124.11 109.022 123.354C108.709 122.598 108.547 121.787 108.547 120.969C108.547 120.15 108.709 119.34 109.022 118.584C109.336 117.828 109.796 117.141 110.375 116.562C115.023 111.933 118.709 106.43 121.219 100.369C123.729 94.3079 125.014 87.81 125 81.25C125 75 123.813 68.75 121.625 63.125L129.188 50C134.375 59.375 137.5 69.875 137.5 81.25Z" fill="#2F83AC"/>
</svg>
