<svg width="150" height="150" viewBox="0 0 150 150" fill="none" xmlns="http://www.w3.org/2000/svg">
<path d="M75 137.5C40.4813 137.5 12.5 109.519 12.5 75C12.5 40.4813 40.4813 12.5 75 12.5C109.519 12.5 137.5 40.4813 137.5 75C137.5 109.519 109.519 137.5 75 137.5ZM75 125C88.2608 125 100.979 119.732 110.355 110.355C119.732 100.979 125 88.2608 125 75C125 61.7392 119.732 49.0215 110.355 39.6447C100.979 30.2678 88.2608 25 75 25C61.7392 25 49.0215 30.2678 39.6447 39.6447C30.2678 49.0215 25 61.7392 25 75C25 88.2608 30.2678 100.979 39.6447 110.355C49.0215 119.732 61.7392 125 75 125ZM53.125 87.5H87.5C88.3288 87.5 89.1237 87.1708 89.7097 86.5847C90.2958 85.9987 90.625 85.2038 90.625 84.375C90.625 83.5462 90.2958 82.7514 89.7097 82.1653C89.1237 81.5792 88.3288 81.25 87.5 81.25H62.5C58.356 81.25 54.3817 79.6038 51.4515 76.6736C48.5212 73.7433 46.875 69.769 46.875 65.625C46.875 61.481 48.5212 57.5067 51.4515 54.5765C54.3817 51.6462 58.356 50 62.5 50H68.75V37.5H81.25V50H96.875V62.5H62.5C61.6712 62.5 60.8763 62.8292 60.2903 63.4153C59.7042 64.0013 59.375 64.7962 59.375 65.625C59.375 66.4538 59.7042 67.2487 60.2903 67.8347C60.8763 68.4208 61.6712 68.75 62.5 68.75H87.5C91.644 68.75 95.6183 70.3962 98.5485 73.3265C101.479 76.2567 103.125 80.231 103.125 84.375C103.125 88.519 101.479 92.4933 98.5485 95.4236C95.6183 98.3538 91.644 100 87.5 100H81.25V112.5H68.75V100H53.125V87.5Z" fill="#2F83AC"/>
</svg>
