<svg width="43" height="43" viewBox="0 0 43 43" fill="none" xmlns="http://www.w3.org/2000/svg">
<path d="M41.2656 0.015625H1.73438C0.783691 0.015625 0.015625 0.783691 0.015625 1.73438V41.2656C0.015625 42.2163 0.783691 42.9844 1.73438 42.9844H41.2656C42.2163 42.9844 42.9844 42.2163 42.9844 41.2656V1.73438C42.9844 0.783691 42.2163 0.015625 41.2656 0.015625ZM39.5469 39.5469H29.6587V26.3447H35.2446L36.0825 19.8618H29.6587V15.7207C29.6587 13.8408 30.1797 12.5625 32.8706 12.5625H36.3027V6.76172C35.7065 6.68115 33.6709 6.50391 31.2969 6.50391C26.3447 6.50391 22.9556 9.52783 22.9556 15.0762V19.8564H17.3589V26.3394H22.9609V39.5469H3.45312V3.45312H39.5469V39.5469Z" fill="#FFF9F9"/>
</svg>
