<svg width="591" height="672" viewBox="0 0 591 672" fill="none" xmlns="http://www.w3.org/2000/svg">
<g filter="url(#filter0_d)">
<path d="M0 -14V662H581V-14H0ZM31 606C29.0222 606 27.0888 605.414 25.4443 604.315C23.7998 603.216 22.5181 601.654 21.7612 599.827C21.0043 598 20.8063 595.989 21.1922 594.049C21.578 592.109 22.5304 590.327 23.9289 588.929C25.3275 587.53 27.1093 586.578 29.0491 586.192C30.9889 585.806 32.9996 586.004 34.8268 586.761C36.6541 587.518 38.2159 588.8 39.3147 590.444C40.4135 592.089 41 594.022 41 596C41 598.652 39.9464 601.196 38.0711 603.071C36.1957 604.946 33.6522 606 31 606ZM31 557C29.0222 557 27.0888 556.414 25.4443 555.315C23.7998 554.216 22.5181 552.654 21.7612 550.827C21.0043 549 20.8063 546.989 21.1922 545.049C21.578 543.109 22.5304 541.327 23.9289 539.929C25.3275 538.53 27.1093 537.578 29.0491 537.192C30.9889 536.806 32.9996 537.004 34.8268 537.761C36.6541 538.518 38.2159 539.8 39.3147 541.444C40.4135 543.089 41 545.022 41 547C41 549.652 39.9464 552.196 38.0711 554.071C36.1957 555.946 33.6522 557 31 557ZM31 509C29.0222 509 27.0888 508.414 25.4443 507.315C23.7998 506.216 22.5181 504.654 21.7612 502.827C21.0043 501 20.8063 498.989 21.1922 497.049C21.578 495.109 22.5304 493.327 23.9289 491.929C25.3275 490.53 27.1093 489.578 29.0491 489.192C30.9889 488.806 32.9996 489.004 34.8268 489.761C36.6541 490.518 38.2159 491.8 39.3147 493.444C40.4135 495.089 41 497.022 41 499C41 501.652 39.9464 504.196 38.0711 506.071C36.1957 507.946 33.6522 509 31 509ZM31 460C29.0222 460 27.0888 459.413 25.4443 458.315C23.7998 457.216 22.5181 455.654 21.7612 453.827C21.0043 452 20.8063 449.989 21.1922 448.049C21.578 446.109 22.5304 444.327 23.9289 442.929C25.3275 441.53 27.1093 440.578 29.0491 440.192C30.9889 439.806 32.9996 440.004 34.8268 440.761C36.6541 441.518 38.2159 442.8 39.3147 444.444C40.4135 446.089 41 448.022 41 450C41 452.652 39.9464 455.196 38.0711 457.071C36.1957 458.946 33.6522 460 31 460ZM31 411C29.0222 411 27.0888 410.414 25.4443 409.315C23.7998 408.216 22.5181 406.654 21.7612 404.827C21.0043 403 20.8063 400.989 21.1922 399.049C21.578 397.109 22.5304 395.327 23.9289 393.929C25.3275 392.53 27.1093 391.578 29.0491 391.192C30.9889 390.806 32.9996 391.004 34.8268 391.761C36.6541 392.518 38.2159 393.8 39.3147 395.444C40.4135 397.089 41 399.022 41 401C41 403.652 39.9464 406.196 38.0711 408.071C36.1957 409.946 33.6522 411 31 411ZM31 363C29.0222 363 27.0888 362.414 25.4443 361.315C23.7998 360.216 22.5181 358.654 21.7612 356.827C21.0043 355 20.8063 352.989 21.1922 351.049C21.578 349.109 22.5304 347.327 23.9289 345.929C25.3275 344.53 27.1093 343.578 29.0491 343.192C30.9889 342.806 32.9996 343.004 34.8268 343.761C36.6541 344.518 38.2159 345.8 39.3147 347.444C40.4135 349.089 41 351.022 41 353C41 355.652 39.9464 358.196 38.0711 360.071C36.1957 361.946 33.6522 363 31 363ZM31 314C29.0222 314 27.0888 313.414 25.4443 312.315C23.7998 311.216 22.5181 309.654 21.7612 307.827C21.0043 306 20.8063 303.989 21.1922 302.049C21.578 300.109 22.5304 298.327 23.9289 296.929C25.3275 295.53 27.1093 294.578 29.0491 294.192C30.9889 293.806 32.9996 294.004 34.8268 294.761C36.6541 295.518 38.2159 296.8 39.3147 298.444C40.4135 300.089 41 302.022 41 304C41 306.652 39.9464 309.196 38.0711 311.071C36.1957 312.946 33.6522 314 31 314ZM31 265C29.0222 265 27.0888 264.414 25.4443 263.315C23.7998 262.216 22.5181 260.654 21.7612 258.827C21.0043 257 20.8063 254.989 21.1922 253.049C21.578 251.109 22.5304 249.327 23.9289 247.929C25.3275 246.53 27.1093 245.578 29.0491 245.192C30.9889 244.806 32.9996 245.004 34.8268 245.761C36.6541 246.518 38.2159 247.8 39.3147 249.444C40.4135 251.089 41 253.022 41 255C41 257.652 39.9464 260.196 38.0711 262.071C36.1957 263.946 33.6522 265 31 265ZM31 217C29.0222 217 27.0888 216.414 25.4443 215.315C23.7998 214.216 22.5181 212.654 21.7612 210.827C21.0043 209 20.8063 206.989 21.1922 205.049C21.578 203.109 22.5304 201.327 23.9289 199.929C25.3275 198.53 27.1093 197.578 29.0491 197.192C30.9889 196.806 32.9996 197.004 34.8268 197.761C36.6541 198.518 38.2159 199.8 39.3147 201.444C40.4135 203.089 41 205.022 41 207C41 209.652 39.9464 212.196 38.0711 214.071C36.1957 215.946 33.6522 217 31 217ZM31 168C29.0222 168 27.0888 167.414 25.4443 166.315C23.7998 165.216 22.5181 163.654 21.7612 161.827C21.0043 160 20.8063 157.989 21.1922 156.049C21.578 154.109 22.5304 152.327 23.9289 150.929C25.3275 149.53 27.1093 148.578 29.0491 148.192C30.9889 147.806 32.9996 148.004 34.8268 148.761C36.6541 149.518 38.2159 150.8 39.3147 152.444C40.4135 154.089 41 156.022 41 158C41 160.652 39.9464 163.196 38.0711 165.071C36.1957 166.946 33.6522 168 31 168ZM31 119C29.0222 119 27.0888 118.414 25.4443 117.315C23.7998 116.216 22.5181 114.654 21.7612 112.827C21.0043 111 20.8063 108.989 21.1922 107.049C21.578 105.109 22.5304 103.327 23.9289 101.929C25.3275 100.53 27.1093 99.578 29.0491 99.1921C30.9889 98.8063 32.9996 99.0043 34.8268 99.7612C36.6541 100.518 38.2159 101.8 39.3147 103.444C40.4135 105.089 41 107.022 41 109C41 111.652 39.9464 114.196 38.0711 116.071C36.1957 117.946 33.6522 119 31 119ZM31 72C29.0222 72 27.0888 71.4135 25.4443 70.3147C23.7998 69.2159 22.5181 67.6541 21.7612 65.8268C21.0043 63.9996 20.8063 61.9889 21.1922 60.0491C21.578 58.1093 22.5304 56.3275 23.9289 54.9289C25.3275 53.5304 27.1093 52.578 29.0491 52.1921C30.9889 51.8063 32.9996 52.0043 34.8268 52.7612C36.6541 53.5181 38.2159 54.7998 39.3147 56.4443C40.4135 58.0888 41 60.0222 41 62C41 64.6522 39.9464 67.1957 38.0711 69.0711C36.1957 70.9464 33.6522 72 31 72Z" fill="#E4EEEE"/>
</g>
<defs>
<filter id="filter0_d" x="0" y="-14" width="591" height="686" filterUnits="userSpaceOnUse" color-interpolation-filters="sRGB">
<feFlood flood-opacity="0" result="BackgroundImageFix"/>
<feColorMatrix in="SourceAlpha" type="matrix" values="0 0 0 0 0 0 0 0 0 0 0 0 0 0 0 0 0 0 127 0"/>
<feOffset dx="5" dy="5"/>
<feGaussianBlur stdDeviation="2.5"/>
<feColorMatrix type="matrix" values="0 0 0 0 0 0 0 0 0 0 0 0 0 0 0 0 0 0 0.25 0"/>
<feBlend mode="normal" in2="BackgroundImageFix" result="effect1_dropShadow"/>
<feBlend mode="normal" in="SourceGraphic" in2="effect1_dropShadow" result="shape"/>
</filter>
</defs>
</svg>
