<svg width="21" height="21" viewBox="0 0 21 21" fill="none" xmlns="http://www.w3.org/2000/svg">
<path d="M14.4952 19.2491H14.5197C14.9817 19.2491 15.4183 19.0671 15.7491 18.7364L18.1221 16.3634C18.2034 16.2822 18.2679 16.1858 18.3119 16.0796C18.356 15.9735 18.3786 15.8597 18.3786 15.7448C18.3786 15.6298 18.356 15.516 18.3119 15.4099C18.2679 15.3037 18.2034 15.2073 18.1221 15.1261L14.6221 11.6261C14.5409 11.5448 14.4445 11.4803 14.3383 11.4363C14.2322 11.3922 14.1184 11.3696 14.0034 11.3696C13.8885 11.3696 13.7747 11.3922 13.6686 11.4363C13.5624 11.4803 13.466 11.5448 13.3848 11.6261L11.9901 13.0209C11.3434 12.8284 10.1368 12.3909 9.37207 11.6261C8.60732 10.8614 8.16982 9.65475 7.97732 9.00813L9.37207 7.61338C9.4534 7.53219 9.51792 7.43576 9.56194 7.32961C9.60596 7.22346 9.62862 7.10967 9.62862 6.99475C9.62862 6.87983 9.60596 6.76604 9.56194 6.65989C9.51792 6.55374 9.4534 6.45731 9.37207 6.37613L5.87207 2.87612C5.70479 2.71823 5.48347 2.63028 5.25345 2.63028C5.02342 2.63028 4.8021 2.71823 4.63482 2.87612L2.2627 5.24913C1.9302 5.58163 1.74295 6.03838 1.74995 6.50475C1.77007 7.75075 2.09995 12.0785 5.5107 15.4893C8.92145 18.9 13.2492 19.229 14.4952 19.2491ZM5.25432 4.732L7.51707 6.99475L6.38569 8.12613C6.28274 8.2288 6.20711 8.3556 6.16569 8.49498C6.12427 8.63436 6.11839 8.78189 6.14857 8.92413C6.16957 9.02475 6.6832 11.4109 8.1357 12.8634C9.5882 14.3159 11.9743 14.8295 12.0749 14.8505C12.2172 14.8808 12.3647 14.875 12.5042 14.8336C12.6436 14.7922 12.7704 14.7165 12.8729 14.6134L14.0043 13.482L16.2671 15.7448L14.5118 17.4991C13.4198 17.4808 9.68357 17.1876 6.74795 14.2511C3.8027 11.3059 3.51745 7.5565 3.49995 6.48638L5.25432 4.732ZM17.4991 9.62413H19.2491C19.2491 5.13537 15.8602 1.75 11.3653 1.75V3.5C14.9196 3.5 17.4991 6.07512 17.4991 9.62413Z" fill="white"/>
<path d="M11.374 7C13.2141 7 13.999 7.78488 13.999 9.625H15.749C15.749 6.80313 14.1959 5.25 11.374 5.25V7Z" fill="white"/>
</svg>
