<svg width="50" height="50" viewBox="0 0 50 50" fill="none" xmlns="http://www.w3.org/2000/svg">
<path d="M25 37.4182C18.1279 37.4182 12.5818 31.8721 12.5818 25C12.5818 18.1279 18.1279 12.5818 25 12.5818C31.8721 12.5818 37.4182 18.1279 37.4182 25C37.4182 31.8721 31.8721 37.4182 25 37.4182ZM25 16.9291C20.5558 16.9291 16.9291 20.5559 16.9291 25C16.9291 29.4441 20.5558 33.0709 25 33.0709C29.4441 33.0709 33.0709 29.4441 33.0709 25C33.0709 20.5559 29.4441 16.9291 25 16.9291ZM37.9267 40.8209C36.3223 40.8209 35.0265 39.5252 35.0265 37.9207C35.0265 36.3162 36.3223 35.0205 37.9267 35.0205C39.5312 35.0205 40.8269 36.3102 40.8269 37.9207C40.8274 38.3017 40.7527 38.679 40.6071 39.0311C40.4616 39.3832 40.248 39.7031 39.9786 39.9725C39.7092 40.2419 39.3893 40.4555 39.0372 40.6011C38.6851 40.7467 38.3077 40.8214 37.9267 40.8209V40.8209ZM49.2066 25C49.2066 28.3422 49.2369 31.6541 49.0492 34.9902C48.8615 38.8652 47.9775 42.3043 45.1439 45.1379C42.3043 47.9775 38.8713 48.8555 34.9963 49.0432C31.6541 49.2309 28.3422 49.2006 25.006 49.2006C21.6638 49.2006 18.3519 49.2309 15.0158 49.0432C11.1408 48.8555 7.70174 47.9715 4.86815 45.1379C2.0285 42.2982 1.15057 38.8652 0.962873 34.9902C0.775177 31.6481 0.805451 28.3361 0.805451 25C0.805451 21.6639 0.775177 18.3459 0.962873 15.0098C1.15057 11.1348 2.03455 7.69571 4.86815 4.86212C7.7078 2.02247 11.1408 1.14454 15.0158 0.956847C18.358 0.769151 21.6699 0.799423 25.006 0.799423C28.3482 0.799423 31.6601 0.769151 34.9963 0.956847C38.8713 1.14454 42.3103 2.02853 45.1439 4.86212C47.9836 7.70177 48.8615 11.1348 49.0492 15.0098C49.243 18.3459 49.2066 21.6578 49.2066 25V25ZM43.8785 10.7231C43.4365 9.6211 42.9037 8.79767 42.05 7.95001C41.1963 7.0963 40.3789 6.56349 39.2769 6.12149C36.0922 4.85606 28.5299 5.14063 25 5.14063C21.4701 5.14063 13.9017 4.85606 10.717 6.11544C9.61502 6.55743 8.79158 7.09024 7.94393 7.94395C7.09022 8.79766 6.55741 9.61505 6.11541 10.717C4.85604 13.9078 5.14061 21.4701 5.14061 25C5.14061 28.5299 4.85604 36.0982 6.11541 39.283C6.55741 40.385 7.09022 41.2084 7.94393 42.0561C8.79764 42.9037 9.61502 43.4426 10.717 43.8846C13.9017 45.144 21.4701 44.8594 25 44.8594C28.5299 44.8594 36.0982 45.144 39.283 43.8846C40.385 43.4426 41.2084 42.9098 42.056 42.0561C42.9098 41.2023 43.4426 40.385 43.8846 39.283C45.1439 36.0982 44.8594 28.5299 44.8594 25C44.8594 21.4701 45.1439 13.9078 43.8785 10.7231Z" fill="white"/>
</svg>
