<svg width="112" height="43" viewBox="0 0 112 43" fill="none" xmlns="http://www.w3.org/2000/svg">
<g filter="url(#filter0_d)">
<path d="M47.8968 10.2C47.9765 10.1789 48.0414 10.1679 48.0914 10.1672C48.3214 10.1638 48.4378 10.2621 48.4408 10.4621C48.4432 10.6221 48.3655 10.7732 48.2076 10.9155C48.0495 11.0479 47.8805 11.1154 47.7005 11.118C47.4306 11.122 47.2939 11.009 47.2904 10.779C47.2862 10.499 47.4619 10.2064 47.8174 9.90116C47.8965 9.83999 47.9856 9.77868 48.0847 9.71722C48.1936 9.64562 48.2976 9.57908 48.3967 9.51763C48.5058 9.45602 48.6001 9.40963 48.6797 9.37846C48.7691 9.33715 48.8288 9.31627 48.8588 9.31583C48.8888 9.31539 48.9039 9.32517 48.9042 9.34517C48.9045 9.36516 48.8849 9.39046 48.8453 9.42104C48.5777 9.58498 48.3748 9.72297 48.2364 9.83501C48.0979 9.93705 47.9747 10.0589 47.8669 10.2005L47.8968 10.2ZM49.0967 10.1824C49.1764 10.1613 49.2413 10.1503 49.2913 10.1496C49.5212 10.1462 49.6377 10.2445 49.6407 10.4445C49.6431 10.6045 49.5653 10.7556 49.4074 10.898C49.2494 11.0303 49.0804 11.0978 48.9004 11.1004C48.6304 11.1044 48.4937 10.9914 48.4903 10.7614C48.4861 10.4814 48.6618 10.1888 49.0172 9.88357C49.0963 9.8224 49.1854 9.76109 49.2845 9.69963C49.3935 9.62802 49.4975 9.56149 49.5966 9.50003C49.7057 9.43843 49.8 9.39204 49.8795 9.36087C49.9689 9.31955 50.0286 9.29868 50.0586 9.29824C50.0886 9.2978 50.1038 9.30758 50.1041 9.32757C50.1044 9.34757 50.0847 9.37286 50.0452 9.40345C49.7776 9.56739 49.5746 9.70538 49.4363 9.81742C49.2978 9.91946 49.1746 10.0413 49.0667 10.1829L49.0967 10.1824ZM63.925 9.60498C63.7556 9.64747 63.5914 9.69988 63.4323 9.76222C63.8076 10.1168 63.9945 10.5741 63.9928 11.1342C63.9928 11.8042 63.6464 12.3844 62.9537 12.8746C62.4094 13.2626 61.8925 13.4752 61.403 13.5124C61.3832 13.5227 61.3583 13.533 61.3285 13.5435C61.7013 13.728 61.9655 14.0092 62.1212 14.3869C62.1721 14.4462 62.223 14.5105 62.2741 14.5797C62.6002 14.985 62.7668 15.4276 62.774 15.9075C62.7796 16.2875 62.6752 16.6641 62.4608 17.0372C62.2562 17.4003 61.9811 17.7294 61.6354 18.0245C61.2896 18.3096 60.893 18.5404 60.4456 18.717L60.4009 18.7326C59.9258 19.0696 59.4083 19.2372 58.8482 19.2354C58.5782 19.2394 58.3467 19.1378 58.1536 18.9306C58.0722 18.8418 58.0058 18.7477 57.9543 18.6485C57.6808 18.4125 57.5412 18.1095 57.5357 17.7395C57.5315 17.4596 57.5875 17.1887 57.7036 16.927C57.8296 16.6551 57.996 16.4176 58.203 16.2146C58.3114 16.103 58.4299 16.0012 58.5585 15.9093C59.0183 15.2225 59.5512 14.7397 60.1571 14.4607C60.316 14.3884 60.5847 14.2995 60.9632 14.1939C61.0632 14.1924 61.1186 14.2216 61.1295 14.2815C61.1305 14.3515 61.0811 14.3872 60.9811 14.3887C60.7614 14.4119 60.5075 14.4906 60.2195 14.6248C59.7029 14.8524 59.2583 15.219 58.8858 15.7245C58.8958 15.7244 58.9057 15.7192 58.9156 15.7091C59.1937 15.585 59.4778 15.5208 59.7678 15.5166C59.9578 15.5138 60.0534 15.5574 60.0548 15.6474C60.0554 15.6874 60.0357 15.7077 59.9957 15.7082L59.5003 15.6855C59.4703 15.6859 59.3758 15.7223 59.2169 15.7947C59.0578 15.857 58.9336 15.9138 58.8444 15.9652C58.765 16.0063 58.6907 16.0524 58.6214 16.1034L58.563 16.2093C58.1432 16.8955 57.9369 17.4836 57.9443 17.9736C57.9465 18.1235 57.9635 18.2583 57.9953 18.3779C58.036 18.4273 58.0818 18.4766 58.1325 18.5259C58.3756 18.7323 58.6772 18.8329 59.0371 18.8276C59.4171 18.8221 59.7804 18.7067 60.1271 18.4816C60.2459 18.3999 60.3596 18.3132 60.4682 18.2216L60.5271 18.1457C61.2246 17.3054 61.6417 16.4342 61.7782 15.5321C61.7867 15.432 61.7902 15.3269 61.7885 15.2169C61.777 14.447 61.4094 13.9373 60.6856 13.6879C60.4762 13.731 60.3067 13.7635 60.177 13.7854C60.0471 13.7973 59.9122 13.8043 59.7722 13.8063C59.7223 13.807 59.6623 13.8079 59.5923 13.809C59.5521 13.7995 59.5071 13.8002 59.4573 13.8109C59.0969 14.4563 58.7315 15.1017 58.3611 15.7472C57.6385 16.9179 56.7175 17.8665 55.5982 18.593C54.489 19.3194 53.3644 19.6909 52.2245 19.7076C51.5446 19.7176 50.936 19.4815 50.3987 18.9993C49.9521 18.5558 49.6647 18.065 49.5367 17.5268C48.7087 16.9989 48.2862 16.165 48.2692 15.0251C48.252 13.8752 48.6022 12.885 49.3199 12.0544C50.0375 11.2138 50.9512 10.7853 52.061 10.769C52.701 10.7597 53.2543 10.9766 53.7209 11.4198C53.8936 11.5973 54.0364 11.7852 54.1494 11.9836C54.4806 12.0587 54.7828 12.2043 55.056 12.4203C55.1963 12.4383 55.3318 12.4713 55.4626 12.5194C55.7137 12.5957 55.9305 12.7125 56.1129 12.8699C56.2951 13.0172 56.4377 13.1951 56.5409 13.4036C56.6538 13.602 56.7121 13.8212 56.7157 14.0612C56.7214 14.4411 56.6119 14.8128 56.3873 15.1761C56.1726 15.5293 55.8866 15.8035 55.5295 15.9988C55.4503 16.0499 55.3609 16.0912 55.2613 16.1227C55.2415 16.133 55.2216 16.1433 55.2018 16.1536C54.9963 16.4566 54.7354 16.7355 54.4192 16.9901C53.5499 17.713 52.5953 18.082 51.5554 18.0972C51.3154 18.1008 51.0902 18.0891 50.8798 18.0621C50.8899 18.072 50.9002 18.0868 50.9105 18.1067C51.1054 18.4339 51.3541 18.6803 51.6566 18.8458C51.8279 18.9333 52.0239 19.0005 52.2447 19.0472C52.4755 19.1039 52.7109 19.1304 52.9509 19.1269C53.6608 19.1165 54.3073 18.877 54.8904 18.4084C55.4735 17.9398 56.0574 17.1961 56.6423 16.1775L58.0604 13.6964C58.3632 13.2119 58.6717 12.7723 58.9858 12.3777C59.3098 11.9729 59.6543 11.6028 60.0194 11.2674C60.3843 10.922 60.7795 10.6012 61.2051 10.3049C61.6208 10.0088 62.0815 9.72202 62.5874 9.44457C62.2654 9.30928 61.8744 9.24501 61.4144 9.25175C60.9245 9.25893 60.4207 9.34633 59.9032 9.51393C59.8881 9.84419 59.8081 10.1804 59.6632 10.5226C59.6343 10.593 59.6052 10.6584 59.5761 10.7189C59.4548 11.3007 59.1635 11.885 58.7022 12.4719C58.1236 13.2404 57.6093 13.628 57.1594 13.6346C56.6994 13.6413 56.4654 13.3697 56.4571 12.8198C56.4557 12.7198 56.4591 12.6148 56.4674 12.5046C56.3048 12.327 56.2213 12.0932 56.2169 11.8032C56.2123 11.4933 56.2977 11.182 56.473 10.8694C56.6484 10.5568 56.8892 10.2732 57.1954 10.0187C57.5115 9.75402 57.8831 9.52355 58.3102 9.32727C58.5288 9.23405 58.7526 9.15076 58.9816 9.0774C58.8404 8.99946 58.6698 8.96196 58.4698 8.96489C57.7899 8.97486 57.16 9.32413 56.5803 10.0127C56.0397 10.6507 55.7739 11.2697 55.7829 11.8696C55.7833 11.8996 55.7636 11.9149 55.7236 11.9155C55.6836 11.9161 55.6633 11.9013 55.6629 11.8714C55.6533 11.2314 55.9336 10.5772 56.5037 9.90882C57.0932 9.2001 57.7429 8.84053 58.4528 8.83012C58.7528 8.82573 58.9937 8.8872 59.1756 9.01455C59.345 8.97206 59.5195 8.9345 59.699 8.90186C59.6034 8.52322 59.419 8.2309 59.1459 8.02488C58.8726 7.80886 58.541 7.70371 58.151 7.70943C57.7011 7.71603 57.2628 7.83246 56.8361 8.05874C56.4193 8.27488 56.0537 8.57527 55.7394 8.95992C55.592 9.1321 55.455 9.33413 55.3284 9.56601C55.2117 9.78774 55.1396 9.97882 55.112 10.1392C55.0941 10.2795 55.0754 10.3698 55.056 10.4101C55.0366 10.4504 55.0119 10.4707 54.9819 10.4712C54.9219 10.4721 54.8913 10.4325 54.8901 10.3525C54.8876 10.1825 54.9542 9.95154 55.0898 9.65952C55.2255 9.3675 55.3916 9.10503 55.5881 8.87213C55.9023 8.47748 56.2926 8.16172 56.7591 7.92486C57.2255 7.67799 57.6836 7.55126 58.1336 7.54467C58.5835 7.53807 58.9603 7.65256 59.2638 7.88813C59.5674 8.12371 59.7723 8.45074 59.8785 8.86923C60.0582 8.84659 60.2031 8.83447 60.3131 8.83285C60.4329 8.82109 60.5528 8.81434 60.6728 8.81258C61.1227 8.80598 61.5083 8.84033 61.8295 8.91563C62.1606 8.99078 62.4876 9.121 62.8104 9.30629C63.4459 8.99694 63.8936 8.84036 64.1535 8.83655C64.2535 8.83508 64.304 8.86935 64.3051 8.93934C64.3058 8.98933 64.2412 9.01528 64.1112 9.01719C63.8313 9.02129 63.4582 9.15678 62.9922 9.42364C63.0125 9.44334 63.0378 9.46297 63.0681 9.48253C63.0984 9.50209 63.1337 9.52158 63.1739 9.54099C63.2245 9.58025 63.2751 9.61951 63.3257 9.65877L63.6543 9.56395C63.7639 9.53234 63.8933 9.49543 64.0427 9.45324C64.0927 9.45251 64.118 9.47214 64.1186 9.51213C64.1194 9.56213 64.1047 9.58735 64.0747 9.58779C64.0447 9.58823 63.9948 9.59396 63.925 9.60498ZM55.6949 14.0161C55.687 13.4862 55.4955 13.0489 55.1203 12.7044L54.9987 12.6012C54.8884 12.5828 54.7733 12.5745 54.6533 12.5762C54.5633 12.5775 54.4734 12.5839 54.3836 12.5952C54.4364 12.7844 54.4644 12.984 54.4675 13.194C54.476 13.764 54.3291 14.3062 54.0267 14.8207C53.695 15.3756 53.2454 15.7422 52.678 15.9205C52.568 15.9222 52.5077 15.903 52.4971 15.8632C52.4959 15.7832 52.5203 15.7428 52.5703 15.7421C52.6302 15.7312 52.705 15.7151 52.7946 15.6938C53.2522 15.5271 53.6275 15.2066 53.9204 14.7322C54.2132 14.2479 54.3554 13.7207 54.3469 13.1508C54.3439 12.9508 54.3211 12.7661 54.2786 12.5967C53.9792 12.6411 53.6754 12.7256 53.3673 12.8501C52.9497 13.0163 52.5681 13.2469 52.2225 13.542C51.9756 13.7556 51.7493 14.004 51.5435 14.287C51.3476 14.5599 51.1769 14.8524 51.0316 15.1646C50.896 15.4666 50.7908 15.7832 50.7157 16.1143C50.6405 16.4355 50.6052 16.751 50.6098 17.061C50.6141 17.351 50.6783 17.63 50.8023 17.8983C51.0228 17.925 51.273 17.9364 51.5529 17.9323C52.5728 17.9173 53.5026 17.5636 54.3424 16.8712C54.5991 16.6475 54.8206 16.4142 55.007 16.1714C54.9869 16.1617 54.9766 16.1419 54.9761 16.1119C54.9757 16.0819 54.9854 16.0617 55.0052 16.0514C55.0251 16.0412 55.0698 16.0205 55.1393 15.9895C55.5206 15.4038 55.7058 14.746 55.6949 14.0161ZM53.6489 11.6159C53.2031 11.2323 52.6752 11.0451 52.0653 11.054C51.0254 11.0693 50.1513 11.4721 49.443 12.2626C48.7448 13.0529 48.4038 13.993 48.42 15.0829C48.4345 16.0528 48.7908 16.8076 49.489 17.3475C49.4245 17.0484 49.3907 16.7938 49.3876 16.5839C49.3701 15.414 49.7147 14.3788 50.4213 13.4784C51.2161 12.4566 52.2685 11.9361 53.5783 11.9169C53.7083 11.915 53.8385 11.9231 53.9688 11.9412C53.877 11.8225 53.7703 11.7141 53.6489 11.6159ZM60.0512 13.3972L60.0507 13.3672C60.0488 13.2372 60.1328 13.171 60.3028 13.1685C60.5128 13.1654 60.769 13.2466 61.0715 13.4122C61.2803 13.3292 61.4838 13.2262 61.682 13.1032C61.9989 12.8986 62.2704 12.6596 62.4963 12.3862C62.7323 12.1127 62.9129 11.8151 63.0381 11.4932C63.1731 11.1612 63.2382 10.8302 63.2333 10.5002C63.23 10.2802 63.177 10.081 63.0743 9.90249C62.2995 10.2539 61.5829 10.8195 60.9244 11.5992C60.5412 12.0549 60.135 12.6509 59.706 13.3872C59.836 13.3853 59.951 13.3886 60.0512 13.3972ZM59.5224 10.1346C59.5191 9.91461 59.4867 9.75507 59.4252 9.65596C58.6886 9.88678 58.0301 10.3265 57.4497 10.9751C56.9971 11.4717 56.7244 11.9608 56.6315 12.4422C56.7635 12.5703 56.9344 12.6328 57.1444 12.6297C57.4444 12.6253 57.7478 12.5159 58.0546 12.3013C58.3614 12.0868 58.6374 11.8177 58.8826 11.4941C59.1377 11.1603 59.3423 10.7973 59.4964 10.405L59.5112 10.3898C59.52 10.3096 59.5237 10.2246 59.5224 10.1346ZM50.2125 17.5769C50.0573 17.2291 49.9768 16.8653 49.9712 16.4853C49.9634 15.9654 50.1005 15.4383 50.3826 14.9041C50.6646 14.3699 51.0479 13.9142 51.5323 13.5371C51.9772 13.1905 52.4782 12.9182 53.0353 12.72C53.4331 12.5741 53.8268 12.4783 54.2161 12.4326C54.1949 12.3529 54.1689 12.2833 54.138 12.2237C53.9776 12.1961 53.8124 12.1835 53.6424 12.186C52.5025 12.2027 51.5195 12.6772 50.6933 13.6094C49.9064 14.491 49.5209 15.4668 49.5369 16.5367C49.5425 16.9166 49.5769 17.2111 49.6401 17.4202C49.8224 17.5776 50.0443 17.6994 50.3056 17.7855C50.2746 17.716 50.2435 17.6464 50.2125 17.5769ZM52.8184 19.2939C52.4384 19.2994 52.0773 19.2247 51.7349 19.0697C51.4027 18.9246 51.1047 18.7239 50.8408 18.4678C50.6786 18.3201 50.5361 18.1522 50.4133 17.964C50.1421 17.8879 49.9054 17.7764 49.7032 17.6293C49.8305 18.1175 50.117 18.5484 50.5626 18.9219C51.0593 19.3646 51.6026 19.5817 52.1925 19.5731C52.8324 19.5637 53.4203 19.42 53.9563 19.1422C53.5776 19.2377 53.1984 19.2883 52.8184 19.2939ZM58.7154 9.33633C58.3772 9.4613 58.0942 9.59546 57.8663 9.73882C57.4102 10.0055 57.05 10.3259 56.7855 10.6998C56.5311 11.0735 56.4067 11.4504 56.4124 11.8304C56.4151 12.0103 56.4473 12.1599 56.5091 12.279C56.6221 11.8073 56.8849 11.3284 57.2977 10.8423C57.8677 10.1638 58.5609 9.70863 59.3776 9.47664C59.3158 9.35753 59.2393 9.25864 59.1481 9.17997C59.0087 9.22202 58.8645 9.27414 58.7154 9.33633ZM56.1326 15.1948C56.3773 14.8412 56.4966 14.4594 56.4905 14.0495C56.4838 13.5995 56.3084 13.242 55.9644 12.9771C55.7721 12.8199 55.5504 12.7081 55.2994 12.6418C55.645 13.0167 55.822 13.4842 55.8304 14.0441C55.8405 14.7241 55.6896 15.3363 55.3777 15.881C55.6755 15.7266 55.9271 15.4979 56.1326 15.1948ZM59.0046 11.6273C58.7396 11.9613 58.4386 12.2357 58.1018 12.4507C57.775 12.6655 57.4516 12.7752 57.1316 12.7799C56.9316 12.7829 56.7558 12.7304 56.6042 12.6226C56.5954 12.7028 56.5915 12.7778 56.5926 12.8478C56.5992 13.2878 56.7724 13.5053 57.1124 13.5003C57.5723 13.4935 58.0915 13.1009 58.67 12.3223C58.9543 11.9381 59.1638 11.57 59.2986 11.218C59.2107 11.3593 59.1127 11.4957 59.0046 11.6273ZM60.6 8.96366C60.4901 8.96527 60.3801 8.97188 60.2703 8.9835C60.1703 8.98496 60.0455 8.99679 59.8958 9.01899C59.9068 9.08884 59.9127 9.14376 59.9132 9.18375L59.915 9.30374C60.423 9.16628 60.917 9.09403 61.397 9.08699C61.567 9.0845 61.7271 9.09215 61.8774 9.10995C61.5058 9.00539 61.08 8.95662 60.6 8.96366ZM62.7988 9.53149C62.5212 9.69557 62.254 9.88951 61.9974 10.1133C61.8986 10.1948 61.8048 10.2811 61.7162 10.3724C62.1327 10.1363 62.5598 9.93503 62.9973 9.7686C62.9461 9.68934 62.8799 9.6103 62.7988 9.53149ZM58.0607 16.7267C57.8555 17.0498 57.7553 17.3763 57.7602 17.7062C57.7623 17.8462 57.7842 17.9709 57.8258 18.0803L57.8243 17.9753C57.8176 17.5254 57.9452 17.0334 58.2073 16.4995C58.1583 16.5703 58.1095 16.646 58.0607 16.7267ZM59.0846 18.992C58.7446 18.9969 58.4537 18.9362 58.2118 18.8097C58.2219 18.8196 58.2371 18.8344 58.2574 18.8541C58.43 19.0216 58.6162 19.1038 58.8162 19.1009C59.0362 19.0977 59.2555 19.0495 59.4741 18.9562C59.3444 18.9781 59.2146 18.99 59.0846 18.992ZM59.7163 9.05163C59.6663 9.05236 59.6263 9.05794 59.5965 9.06838C59.5068 9.0897 59.4171 9.11102 59.3274 9.13234C59.3986 9.2113 59.46 9.30541 59.5117 9.41466C59.5813 9.39364 59.656 9.37254 59.7357 9.35137L59.7339 9.23139L59.733 9.17139C59.7326 9.1414 59.727 9.10147 59.7163 9.05163ZM60.9847 13.6235C61.196 13.7104 61.3925 13.8126 61.5743 13.9299C61.4519 13.7717 61.2952 13.659 61.1042 13.5918L60.9847 13.6235ZM54.6806 12.3958C54.5597 12.3376 54.424 12.2896 54.2734 12.2518C54.3042 12.3013 54.325 12.356 54.3359 12.4159C54.4557 12.4041 54.5706 12.3974 54.6806 12.3958ZM59.7241 9.57657C59.6742 9.5873 59.6245 9.60303 59.5748 9.62376C59.6061 9.71331 59.628 9.838 59.6404 9.99784C59.6681 9.84742 59.696 9.70699 59.7241 9.57657ZM67.4389 16.8292C67.0957 17.2843 66.7391 17.5146 66.3691 17.52C66.3391 17.5204 66.2991 17.516 66.2489 17.5068L66.1755 17.6129L66.2655 17.6115C66.4455 17.6089 66.6495 17.5409 66.8775 17.4075C67.1054 17.2642 67.3275 17.0709 67.5439 16.8277C67.593 16.767 67.6225 16.7315 67.6323 16.7214C67.652 16.7011 67.6769 16.6907 67.7069 16.6903C67.7769 16.6893 67.8123 16.7188 67.8132 16.7788C67.8135 16.7987 67.7693 16.8544 67.6807 16.9457C67.5921 17.037 67.4886 17.1385 67.3702 17.2503C66.9758 17.6261 66.5636 17.8172 66.1336 17.8235L66.0136 17.8252C65.6889 18.18 65.3824 18.4196 65.0943 18.5438C64.8061 18.668 64.517 18.7323 64.2271 18.7365C64.0171 18.7396 63.8358 18.6573 63.6833 18.4895C63.5308 18.3217 63.4527 18.1178 63.4491 17.8778C63.4432 17.4779 63.5618 17.0511 63.8051 16.5975C64.0482 16.1339 64.4066 15.6886 64.8802 15.2616C65.3044 14.8653 65.7049 14.5594 66.0817 14.3439C66.4684 14.1182 66.7917 14.0034 67.0516 13.9996C67.2116 13.9973 67.3324 14.0505 67.4141 14.1593C67.5057 14.268 67.5629 14.4172 67.5858 14.6069C67.5982 14.7667 67.5612 14.9723 67.475 15.2235C67.3886 15.4648 67.2725 15.7266 67.1266 16.0087C66.9808 16.2909 66.82 16.5733 66.6442 16.8559C66.5272 17.0576 66.4149 17.2393 66.3073 17.4009L66.3973 17.3996C66.6973 17.3952 67.0141 17.1805 67.3478 16.7556L67.4389 16.8292ZM66.8215 15.6682C66.8187 15.4782 66.7323 15.3844 66.5623 15.3869C66.2323 15.3918 65.7433 15.794 65.0952 16.5936C64.457 17.393 64.1355 17.9628 64.1306 18.3029C64.1318 18.3829 64.1477 18.4477 64.1785 18.4972C64.2189 18.5266 64.2691 18.5409 64.3291 18.54C64.5591 18.5366 64.7882 18.4733 65.0164 18.3499C65.0461 18.3295 65.0758 18.309 65.1055 18.2886C65.2934 18.1458 65.4954 17.9479 65.7117 17.6947C65.6608 17.6354 65.6347 17.5608 65.6333 17.4708C65.6318 17.3708 65.6453 17.2706 65.6738 17.1702C65.7123 17.0696 65.761 16.9789 65.8198 16.898C65.8786 16.8171 65.9426 16.7512 66.0118 16.7002C66.0809 16.6391 66.1555 16.608 66.2355 16.6069C66.2755 16.6063 66.3308 16.6255 66.4014 16.6644C66.4405 16.6039 66.4845 16.5382 66.5334 16.4675C66.7283 16.1246 66.8244 15.8581 66.8215 15.6682ZM67.0165 15.6653C67.1135 15.4639 67.1955 15.2626 67.2625 15.0616C67.3395 14.8605 67.3817 14.6699 67.389 14.4897C67.3978 14.4096 67.3718 14.34 67.3109 14.2808C67.25 14.2217 67.1795 14.1928 67.0996 14.1939C67.0296 14.195 66.9598 14.211 66.8902 14.242C66.8207 14.273 66.7415 14.3292 66.6527 14.4105C66.5638 14.4818 66.4553 14.5834 66.3272 14.7153C66.2092 14.8471 66.0667 15.0142 65.8997 15.2166C65.7915 15.3382 65.6883 15.4598 65.5901 15.5812C65.9271 15.3763 66.2555 15.2714 66.5755 15.2667C66.8255 15.2631 66.9526 15.4012 66.9567 15.6812C66.9573 15.7212 66.9529 15.7613 66.9435 15.8014C66.9729 15.761 66.9973 15.7156 67.0165 15.6653ZM72.1454 15.9201C71.7039 16.4967 71.2657 16.9532 70.8307 17.2896C70.6032 17.4629 70.3457 17.6317 70.0582 17.7959C70.1204 17.9451 70.1529 18.1146 70.1558 18.3046C70.1574 18.4146 70.149 18.5197 70.1305 18.62C70.122 18.7201 70.1037 18.8404 70.0758 18.9808C70.1855 18.9592 70.2754 18.9479 70.3454 18.9469L70.6153 18.9429C70.9553 18.9379 71.2308 18.9689 71.4418 19.0358C71.6628 19.1026 71.7742 19.1909 71.7758 19.3009C71.7769 19.3709 71.7474 19.4064 71.6874 19.4072C71.6474 19.4078 71.602 19.3835 71.5513 19.3342C71.4602 19.2656 71.3244 19.2125 71.1439 19.1752C70.9633 19.1378 70.773 19.1206 70.573 19.1235C70.493 19.1247 70.413 19.1259 70.3331 19.1271C70.2632 19.1381 70.1584 19.1546 70.0188 19.1767C69.904 19.5284 69.769 19.8654 69.6138 20.1877C69.4686 20.5099 69.2933 20.8225 69.0878 21.1255C68.8924 21.4384 68.667 21.7468 68.4115 22.0505C68.156 22.3543 67.8657 22.6686 67.5405 22.9934C66.9689 23.5619 66.4104 24.0051 65.8651 24.3231C65.31 24.6513 64.8224 24.8185 64.4025 24.8246C64.1725 24.828 63.9711 24.7359 63.7983 24.5484C63.6256 24.371 63.5374 24.1572 63.5337 23.9073C63.5271 23.4673 63.6604 23.0203 63.9337 22.5662C64.1971 22.1223 64.5757 21.6917 65.0695 21.2745C65.4746 20.9385 65.9449 20.6216 66.4805 20.3237C66.6072 20.1018 66.7887 19.8691 67.0251 19.6256C67.5767 19.0575 68.334 18.5363 69.297 18.0621C69.2836 17.8323 69.196 17.6586 69.0342 17.5409C68.945 17.5922 68.8505 17.6286 68.7508 17.6501C68.5147 17.9136 68.3276 18.1064 68.1894 18.2284C68.0214 18.3609 67.8773 18.428 67.7574 18.4297C67.6674 18.4311 67.6216 18.3817 67.6201 18.2817C67.6168 18.0618 67.8334 17.8286 68.2698 17.5821C68.2696 17.5721 68.2694 17.5571 68.2691 17.5371C68.267 17.3972 68.3909 17.3253 68.6409 17.3217C68.6709 17.3212 68.706 17.3257 68.7461 17.3351C68.8054 17.2843 68.8547 17.2385 68.8941 17.1979L69.0271 17.061C69.0763 17.0103 69.1305 16.9545 69.1896 16.8936C69.2485 16.8227 69.3272 16.7316 69.4255 16.6201C69.5436 16.4884 69.6419 16.3769 69.7206 16.2857C69.8091 16.1844 69.8976 16.0881 69.9863 15.9968C70.0748 15.8955 70.1782 15.789 70.2965 15.6772C70.4249 15.5653 70.5828 15.423 70.7702 15.2502L70.9775 15.0672C70.9771 15.0372 70.9816 15.0071 70.9912 14.977C70.99 14.897 70.9839 14.8271 70.973 14.7672C70.903 14.7682 70.833 14.7693 70.7631 14.7703C70.6631 14.7718 70.598 14.7677 70.5679 14.7581L70.2824 14.7323C70.1936 14.8136 70.0951 14.9151 69.9869 15.0367C69.8887 15.1581 69.6633 15.4665 69.3107 15.9617L69.2196 15.888C69.6312 15.3219 69.8763 14.9933 69.9549 14.9022C70.0139 14.8313 70.0729 14.7654 70.132 14.7045L69.7561 14.65C69.696 14.6409 69.6459 14.6367 69.6059 14.6372C69.5658 14.6278 69.5357 14.6233 69.5157 14.6236C69.4757 14.6241 69.431 14.6448 69.3816 14.6855L69.0168 15.366C68.8611 15.6583 68.6883 15.8058 68.4983 15.8086C68.3883 15.8102 68.3324 15.751 68.3306 15.631C68.3284 15.4811 68.4108 15.3048 68.5778 15.1024C68.7448 14.8999 68.9816 14.6864 69.2883 14.4619L69.7427 13.7501C69.7915 13.6694 69.8559 13.6285 69.9359 13.6273C69.9659 13.6269 69.9811 13.6416 69.9816 13.6716C69.9819 13.6916 69.9722 13.7168 69.9527 13.7471C69.9331 13.7773 69.9137 13.8126 69.8943 13.8529C69.8355 13.9338 69.7768 14.0247 69.7183 14.1255C69.6792 14.1861 69.65 14.2366 69.6306 14.2768C69.829 14.1739 69.9981 14.1064 70.1376 14.0744C70.2771 14.0423 70.4519 14.0248 70.6619 14.0217C70.7819 14.0199 70.907 14.0281 71.0373 14.0462C71.1776 14.0641 71.3331 14.0969 71.5038 14.1444C71.5942 14.173 71.6495 14.1922 71.6697 14.2019C71.6997 14.2015 71.7347 14.201 71.7747 14.2004C71.8047 14.2 71.8444 14.1844 71.894 14.1536C72.1204 13.9103 72.2929 13.7428 72.4115 13.651C72.5402 13.5591 72.6595 13.5124 72.7695 13.5107C72.8395 13.5097 72.8751 13.5492 72.8763 13.6292C72.877 13.6792 72.8677 13.7243 72.8483 13.7646C72.8289 13.8049 72.7846 13.8556 72.7155 13.9166C72.6563 13.9674 72.5672 14.0288 72.4482 14.1005C72.3393 14.1721 72.1906 14.2593 72.0021 14.3621L71.4554 14.9252C71.4665 14.995 71.4726 15.0699 71.4738 15.1499C71.432 15.7006 71.0898 16.2257 70.4472 16.7251C70.1704 16.9392 69.8881 17.1234 69.6004 17.2776C69.7211 17.3258 69.8224 17.4094 69.9041 17.5282C69.9449 17.5776 69.9806 17.6271 70.0114 17.6766C70.2195 17.5536 70.4673 17.3999 70.7546 17.2157C71.2191 16.8488 71.6524 16.3924 72.0543 15.8465L72.1454 15.9201ZM65.6439 21.5661C65.1609 22.0332 64.7729 22.5039 64.4799 22.9783C64.1771 23.4628 64.0285 23.89 64.034 24.26C64.0356 24.3699 64.077 24.4644 64.1582 24.5432C64.2394 24.622 64.33 24.6607 64.43 24.6592C64.69 24.6554 65.0178 24.5056 65.4134 24.2097C65.799 23.914 66.2082 23.518 66.6408 23.0216C67.0736 22.5352 67.5053 21.9788 67.936 21.3524C68.063 21.1506 68.1851 20.9537 68.3022 20.762C67.7802 21.2997 67.2642 21.5723 66.7543 21.5798C66.4343 21.5845 66.2715 21.3968 66.2658 21.0169C66.0484 21.1901 65.8411 21.3732 65.6439 21.5661ZM67.2602 20.2972C66.9629 20.4816 66.6858 20.6757 66.4288 20.8795C66.4194 20.9196 66.4149 20.9547 66.4154 20.9847C66.4101 21.3048 66.5225 21.4632 66.7525 21.4598C67.1124 21.4545 67.5778 21.1377 68.1484 20.5092C68.473 20.1444 68.7279 19.7957 68.9129 19.4629C68.3558 19.6611 67.8049 19.9392 67.2602 20.2972ZM69.2986 18.1671C68.6338 18.5169 68.0495 18.9055 67.5458 19.3329C67.1802 19.6283 66.9044 19.9124 66.7184 20.1852C66.7581 20.1646 66.8028 20.1439 66.8525 20.1232C67.5174 19.7734 68.2431 19.4777 69.0295 19.2362C69.2138 18.8534 69.3035 18.4971 69.2986 18.1671ZM70.3021 16.0522C70.1247 16.2248 69.9818 16.3669 69.8735 16.4785C69.765 16.5801 69.6713 16.6715 69.5925 16.7527C69.5136 16.8238 69.4347 16.9 69.3559 16.9812L69.1047 17.2399C69.1546 17.2291 69.1945 17.2235 69.2245 17.2231L69.2995 17.222C69.3495 17.2213 69.3946 17.2256 69.4347 17.235C69.6426 17.092 69.8746 16.8885 70.1307 16.6248C70.4851 16.2495 70.7295 15.8709 70.8638 15.4889C70.6765 15.6717 70.4893 15.8594 70.3021 16.0522ZM69.5775 17.758C69.5759 17.648 69.5395 17.5585 69.4685 17.4896C69.4279 17.4502 69.3825 17.4258 69.3324 17.4165C69.2629 17.4476 69.1932 17.4736 69.1235 17.4946C69.285 17.5923 69.3776 17.7609 69.4011 18.0006C69.4508 17.9799 69.5054 17.9541 69.565 17.9232C69.5741 17.8631 69.5783 17.808 69.5775 17.758ZM69.4667 18.3747C69.4951 18.2643 69.5186 18.1639 69.5372 18.0736C69.4974 18.0842 69.4576 18.0998 69.4179 18.1204C69.4203 18.2804 69.4126 18.4355 69.3949 18.5858C69.4238 18.5153 69.4478 18.445 69.4667 18.3747ZM71.451 14.6252C71.4211 14.6356 71.3913 14.6511 71.3616 14.6715L71.3771 14.7013L71.451 14.6252ZM69.0324 17.4209L69.0474 17.4207C69.0674 17.4204 69.0874 17.4151 69.1072 17.4048C69.0972 17.405 69.0872 17.4051 69.0772 17.4053L69.0324 17.4209ZM76.3437 16.0986C75.3819 17.3228 74.691 17.938 74.271 17.9442L74.256 17.9444C74.198 18.0753 74.1745 18.1756 74.1855 18.2455C74.1872 18.3555 74.248 18.4096 74.368 18.4078C74.5479 18.4052 74.8107 18.2513 75.1562 17.9462C75.5016 17.6411 75.9242 17.1399 76.4238 16.4425C76.4923 16.3415 76.547 16.3157 76.5877 16.3651C76.6383 16.4043 76.6342 16.4644 76.5754 16.5453L75.9869 17.319C75.6436 17.7741 75.3285 18.0987 75.0413 18.2929C74.7642 18.487 74.5206 18.5856 74.3107 18.5887C74.1207 18.5915 73.9597 18.5288 73.8278 18.4007C73.7059 18.2725 73.6334 18.1086 73.6104 17.9089C73.6094 17.8389 73.6133 17.7638 73.6221 17.6837C73.6407 17.5934 73.679 17.4778 73.7369 17.337C73.8047 17.186 73.9019 16.9995 74.0286 16.7776C74.126 16.6062 74.248 16.4044 74.3946 16.1722L73.3597 16.1874C73.1934 16.4398 72.9877 16.7279 72.7425 17.0515C72.576 17.284 72.4142 17.5014 72.2572 17.7037L71.7594 18.5211L71.745 18.5663C71.7352 18.5764 71.7103 18.5818 71.6703 18.5824L70.8156 18.6099C70.7556 18.6108 70.7204 18.5963 70.7099 18.5665C70.7096 18.5465 70.7292 18.5162 70.7686 18.4756L72.9666 14.978C72.7101 15.2118 72.5568 15.3291 72.5068 15.3298C72.4667 15.3204 72.5155 15.2396 72.6532 15.0876C72.8402 14.8848 73.0081 14.7424 73.1569 14.6602L73.5818 13.9789C73.6109 13.9184 73.6554 13.8878 73.7154 13.8869L74.5251 13.86C74.5351 13.8599 74.5452 13.8697 74.5555 13.8896C74.5658 13.9094 74.571 13.9244 74.5712 13.9344L73.8096 15.1757C73.792 15.3359 73.7494 15.4916 73.6816 15.6426L74.7467 15.642C74.8933 15.4098 75.0595 15.1573 75.2455 14.8846C75.4413 14.6017 75.6615 14.2834 75.9063 13.9298C75.9454 13.8692 75.9949 13.8385 76.0549 13.8376L76.8646 13.8107C76.8846 13.8104 76.8948 13.8203 76.8951 13.8403C76.8958 13.8903 76.8374 13.9962 76.7198 14.1579L74.5195 17.5055C74.4313 17.6268 74.358 17.7379 74.2995 17.8388C74.6894 17.8331 75.3405 17.2284 76.2526 16.0249L76.3437 16.0986ZM74.5855 15.8994L73.5354 15.8998C73.4962 15.9503 73.4571 16.0109 73.4181 16.0815L74.468 16.0661C74.5073 16.0155 74.5464 15.96 74.5855 15.8994ZM80.2605 16.2812C80.2609 16.3112 80.2075 16.417 80.1002 16.5986C80.0029 16.78 79.836 16.9925 79.5996 17.236C79.1861 17.6721 78.7809 17.9931 78.3839 18.1989C78.2051 18.2816 78.0361 18.349 77.8768 18.4014C77.7478 18.4633 77.6232 18.4951 77.5032 18.4969L77.4432 18.4978L77.3532 18.4991C77.0833 18.503 76.8567 18.3963 76.6734 18.179C76.49 17.9517 76.3957 17.668 76.3907 17.3281C76.3777 16.4582 76.8357 15.6514 77.7647 14.9077C77.9424 14.755 78.1304 14.6173 78.3286 14.4943C78.5266 14.3614 78.7199 14.2486 78.9086 14.1558C79.0971 14.053 79.2709 13.9755 79.4302 13.9231C79.5893 13.8608 79.7238 13.8288 79.8338 13.8272C80.0138 13.8246 80.1596 13.8774 80.2712 13.9858C80.3827 14.0842 80.4397 14.2184 80.4422 14.3883C80.4452 14.5883 80.3634 14.8045 80.1969 15.037C80.0302 15.2595 79.8179 15.4426 79.56 15.5864C79.3617 15.6993 79.1381 15.7976 78.8893 15.8813C78.5527 16.1062 78.1211 16.3426 77.5948 16.5903C77.2132 17.156 77.0245 17.5788 77.0287 17.8588C77.0312 18.0287 77.0681 18.1582 77.1395 18.2472C77.2202 18.296 77.3106 18.3197 77.4106 18.3182C77.5505 18.3162 77.7348 18.2635 77.9633 18.1601C78.0428 18.1289 78.1223 18.0928 78.2017 18.0516C78.6267 17.7153 79.1329 17.1228 79.7203 16.2741L79.8266 16.3626C79.4349 16.9184 79.0766 17.3687 78.7517 17.7135C79.009 17.5297 79.2608 17.316 79.5072 17.0723C79.7733 16.8084 80.0041 16.525 80.1996 16.2221C80.2193 16.2018 80.2343 16.2016 80.2446 16.2214C80.2547 16.2313 80.2599 16.2462 80.2602 16.2662L80.2605 16.2812ZM79.6688 14.8347C79.6672 14.7247 79.6063 14.6706 79.4864 14.6724C79.2964 14.6752 78.9896 14.8947 78.5661 15.331C78.3692 15.5439 78.1922 15.7465 78.0351 15.9388C78.1945 15.8965 78.3586 15.834 78.5274 15.7516C78.7854 15.6178 79.0231 15.4643 79.2406 15.2911C79.3986 15.1587 79.5415 15.0166 79.6692 14.8647L79.6688 14.8347ZM79.9894 14.2C79.9873 14.06 79.9162 13.991 79.7762 13.9931C79.5463 13.9964 79.2539 14.1757 78.8992 14.531C78.8008 14.6424 78.6976 14.759 78.5894 14.8806C78.9163 14.6757 79.2198 14.5713 79.4998 14.5672C79.6498 14.565 79.7455 14.6136 79.787 14.713C79.9241 14.521 79.9916 14.3499 79.9894 14.2ZM77.888 16.136C77.8194 16.227 77.7557 16.3179 77.6971 16.4088C77.9451 16.2752 78.1733 16.1518 78.3816 16.0387C78.2221 16.0711 78.0576 16.1035 77.888 16.136ZM83.4784 16.5941C83.0862 17.1199 82.7373 17.53 82.4317 17.8245C82.4911 17.7837 82.5554 17.7377 82.6246 17.6867C82.9606 17.4118 83.2994 16.9967 83.6412 16.4417C83.7003 16.3808 83.7448 16.3501 83.7748 16.3497C83.8348 16.3488 83.8601 16.3685 83.8507 16.4086C83.7053 16.7208 83.5246 17.0084 83.3085 17.2716C83.0923 17.5248 82.8605 17.7433 82.6132 17.9269C82.3759 18.1104 82.1281 18.254 81.8696 18.3578C81.6109 18.4516 81.3665 18.4902 81.1362 18.4736C80.856 18.4577 80.6191 18.3362 80.4257 18.109C80.2321 17.8718 80.1327 17.5782 80.1275 17.2283C80.1187 16.6383 80.4143 16.0039 81.0142 15.3251C81.201 15.1123 81.4081 14.9142 81.6354 14.7309C81.8725 14.5374 82.11 14.3689 82.3479 14.2254C82.5858 14.0819 82.8191 13.9685 83.0479 13.8851C83.2767 13.8017 83.4811 13.7587 83.6611 13.7561C83.8011 13.754 83.9219 13.8123 84.0237 13.9308C84.1254 14.0393 84.1774 14.1736 84.1797 14.3335C84.182 14.4835 84.1542 14.634 84.0965 14.7848C84.0486 14.9255 83.9805 15.0565 83.8923 15.1779C83.814 15.289 83.7203 15.3804 83.6114 15.452C83.552 15.4929 83.4924 15.5238 83.4327 15.5446C83.4047 15.6751 83.3465 15.7959 83.2581 15.9072C83.1305 16.0691 82.9968 16.1511 82.8568 16.1531C82.6868 16.1556 82.6006 16.0769 82.5982 15.9169C82.596 15.7669 82.7039 15.6303 82.9221 15.5071C82.9618 15.4865 82.9965 15.466 83.0262 15.4456C82.9955 15.396 82.9797 15.3412 82.9788 15.2813C82.9782 15.2413 82.9776 15.2013 82.977 15.1613C82.6578 15.216 82.2476 15.542 81.7464 16.1394C81.2062 16.7974 80.9394 17.3514 80.9462 17.8013C80.9484 17.9513 80.9752 18.0709 81.0265 18.1602L81.0415 18.16C81.2129 18.2475 81.4331 18.2592 81.7021 18.1953C81.7718 18.1743 81.8464 18.1482 81.926 18.117C82.3121 17.8513 82.7992 17.3191 83.3873 16.5204L83.4784 16.5941ZM83.0932 14.9045C83.1421 14.8338 83.211 14.7578 83.2998 14.6765C83.3984 14.585 83.5267 14.4681 83.6846 14.3258C83.7932 14.2342 83.847 14.1534 83.846 14.0834C83.8442 13.9634 83.7733 13.9045 83.6333 13.9065C83.4533 13.9092 83.1954 14.0479 82.8594 14.3229C82.5335 14.5977 82.1989 14.9627 81.8557 15.4177C81.7967 15.4886 81.7379 15.5645 81.6791 15.6453C82.1635 15.2682 82.6055 15.0667 83.0052 15.0408C83.0246 15.0006 83.0539 14.9551 83.0932 14.9045ZM87.663 16.1727C87.6634 16.2027 87.61 16.3085 87.5027 16.4901C87.4054 16.6715 87.2386 16.884 87.0022 17.1275C86.5886 17.5636 86.1834 17.8846 85.7864 18.0904C85.6076 18.173 85.4386 18.2405 85.2794 18.2929C85.1503 18.3548 85.0257 18.3866 84.9058 18.3883L84.8458 18.3892L84.7558 18.3905C84.4858 18.3945 84.2592 18.2878 84.0759 18.0705C83.8925 17.8431 83.7983 17.5595 83.7932 17.2195C83.7802 16.3496 84.2382 15.5428 85.1672 14.7991C85.3449 14.6465 85.5329 14.5087 85.7311 14.3858C85.9291 14.2529 86.1225 14.14 86.3111 14.0473C86.4996 13.9445 86.6735 13.8669 86.8327 13.8146C86.9918 13.7523 87.1263 13.7203 87.2363 13.7187C87.4163 13.716 87.5621 13.7689 87.6737 13.8773C87.7852 13.9757 87.8422 14.1098 87.8447 14.2798C87.8477 14.4798 87.766 14.696 87.5994 14.9285C87.4327 15.1509 87.2204 15.3341 86.9625 15.4779C86.7642 15.5908 86.5406 15.6891 86.2919 15.7727C85.9552 15.9977 85.5237 16.234 84.9973 16.4818C84.6157 17.0474 84.427 17.4703 84.4312 17.7502C84.4337 17.9202 84.4707 18.0497 84.542 18.1386C84.6227 18.1875 84.7131 18.2111 84.8131 18.2097C84.9531 18.2076 85.1373 18.1549 85.3658 18.0516C85.4453 18.0204 85.5248 17.9842 85.6042 17.9431C86.0292 17.6068 86.5354 17.0143 87.1228 16.1656L87.2292 16.254C86.8374 16.8099 86.4791 17.2602 86.1542 17.605C86.4115 17.4212 86.6633 17.2074 86.9097 16.9638C87.1758 16.6999 87.4066 16.4165 87.6021 16.1136C87.6218 16.0933 87.6368 16.0931 87.6471 16.1129C87.6572 16.1228 87.6625 16.1377 87.6628 16.1577L87.663 16.1727ZM87.0713 14.7262C87.0697 14.6162 87.0089 14.5621 86.8889 14.5639C86.6989 14.5666 86.3921 14.7862 85.9686 15.2224C85.7718 15.4353 85.5948 15.6379 85.4376 15.8303C85.597 15.7879 85.7611 15.7255 85.9299 15.643C86.1879 15.5092 86.4257 15.3557 86.6431 15.1825C86.8011 15.0502 86.944 14.9081 87.0718 14.7562L87.0713 14.7262ZM87.3919 14.0914C87.3898 13.9514 87.3188 13.8825 87.1788 13.8845C86.9488 13.8879 86.6564 14.0672 86.3017 14.4224C86.2034 14.5339 86.1001 14.6504 85.9919 14.772C86.3189 14.5672 86.6223 14.4628 86.9023 14.4586C87.0523 14.4564 87.148 14.505 87.1895 14.6045C87.3267 14.4124 87.3941 14.2414 87.3919 14.0914ZM85.2906 16.0274C85.2219 16.1185 85.1583 16.2094 85.0996 16.3003C85.3476 16.1666 85.5758 16.0433 85.7842 15.9302C85.6246 15.9625 85.4601 15.995 85.2906 16.0274ZM92.0569 15.8682C91.095 17.0925 90.4041 17.7077 89.9842 17.7138L89.9692 17.714C89.9111 17.8449 89.8876 17.9453 89.8987 18.0151C89.9003 18.1251 89.9611 18.1792 90.0811 18.1774C90.2611 18.1748 90.5238 18.0209 90.8693 17.7158C91.2148 17.4107 91.6374 16.9095 92.137 16.2121C92.2055 16.1111 92.2601 16.0853 92.3009 16.1347C92.3515 16.1739 92.3474 16.234 92.2886 16.3149L91.7 17.0886C91.3568 17.5437 91.0416 17.8683 90.7545 18.0626C90.4773 18.2566 90.2338 18.3552 90.0238 18.3583C89.8338 18.3611 89.6729 18.2984 89.5409 18.1704C89.419 18.0421 89.3466 17.8782 89.3236 17.6785C89.3225 17.6085 89.3264 17.5334 89.3352 17.4533C89.3539 17.363 89.3922 17.2474 89.4501 17.1066C89.5178 16.9556 89.615 16.7691 89.7417 16.5472C89.8392 16.3758 89.9612 16.174 90.1077 15.9418L89.0729 15.957C88.9066 16.2095 88.7009 16.4975 88.4557 16.8211C88.2891 17.0536 88.1274 17.271 87.9704 17.4733L87.4725 18.2907L87.4582 18.3359C87.4483 18.3461 87.4234 18.3514 87.3834 18.352L86.5287 18.3795C86.4687 18.3804 86.4335 18.3659 86.4231 18.3361C86.4228 18.3161 86.4423 18.2858 86.4817 18.2452L88.6798 14.7476C88.4232 14.9814 88.2699 15.0987 88.22 15.0994C88.1798 15.09 88.2286 15.0093 88.3664 14.8572C88.5533 14.6545 88.7212 14.512 88.87 14.4298L89.2949 13.7485C89.324 13.6881 89.3686 13.6574 89.4285 13.6565L90.2382 13.6297C90.2482 13.6295 90.2584 13.6394 90.2687 13.6592C90.279 13.6791 90.2842 13.694 90.2844 13.704L89.5228 14.9453C89.5052 15.1056 89.4625 15.2612 89.3948 15.4122L90.4599 15.4116C90.6064 15.1794 90.7727 14.927 90.9586 14.6542C91.1544 14.3713 91.3747 14.053 91.6194 13.6994C91.6585 13.6388 91.7081 13.6081 91.7681 13.6072L92.5778 13.5803C92.5978 13.5801 92.6079 13.5899 92.6082 13.6099C92.609 13.6599 92.5505 13.7658 92.4329 13.9275L90.2327 17.2751C90.1445 17.3964 90.0711 17.5075 90.0126 17.6084C90.4026 17.6027 91.0536 16.9981 91.9657 15.7946L92.0569 15.8682ZM90.2987 15.669L89.2486 15.6694C89.2093 15.72 89.1702 15.7805 89.1313 15.8511L90.1812 15.8357C90.2204 15.7851 90.2596 15.7296 90.2987 15.669ZM96.2752 16.1514C95.5808 17.2017 95.0086 17.7302 94.5586 17.7368C94.5086 17.7375 94.4686 17.7331 94.4384 17.7235C94.3999 17.8241 94.381 17.8944 94.3816 17.9344C94.3835 18.0644 94.4392 18.1135 94.5488 18.0819C94.6882 18.0399 94.8614 17.9223 95.0686 17.7293C95.2857 17.5361 95.4927 17.333 95.6895 17.1201C95.8864 16.9072 96.0586 16.7197 96.2062 16.5575C96.3537 16.3853 96.4374 16.2991 96.4574 16.2988C96.5074 16.298 96.5327 16.3177 96.5333 16.3577C96.5336 16.3777 96.5092 16.423 96.4603 16.4937C96.4112 16.5545 96.3474 16.6354 96.2689 16.7366C96.1902 16.8277 96.0967 16.9291 95.9884 17.0407C95.89 17.1522 95.7818 17.2688 95.6636 17.3905C95.4178 17.6742 95.196 17.8924 94.9983 18.0453C94.8004 18.1883 94.6115 18.261 94.4315 18.2637C94.2715 18.266 94.1358 18.218 94.0243 18.1196C93.9228 18.0211 93.8709 17.8919 93.8685 17.7319C93.8665 17.6019 93.8846 17.4716 93.9226 17.341C93.9513 17.2506 94.0045 17.1298 94.0823 16.9787C94.0818 16.9487 94.0814 16.9187 94.0809 16.8887L93.4467 17.618C93.2402 17.8511 93.0577 18.0188 92.8992 18.1211C92.7507 18.2233 92.5965 18.2756 92.4365 18.2779C92.2465 18.2807 92.0954 18.2079 91.9832 18.0595C91.8709 17.9112 91.813 17.712 91.8092 17.462C91.8021 16.9821 92.132 16.3072 92.7991 15.4373L93.1669 14.9519L92.7055 15.1986L93.9616 13.9201C94.0399 13.8089 94.094 13.7481 94.1239 13.7377C94.1636 13.7171 94.2333 13.7011 94.3332 13.6896L94.9477 13.6506C95.0177 13.6496 95.053 13.6691 95.0536 13.7091C95.0537 13.7191 95.0343 13.7594 94.9953 13.8299L93.8049 15.4826C93.798 15.6927 93.7062 15.9041 93.5293 16.1167C93.2837 16.4103 93.058 16.6986 92.8522 16.9817C92.7634 17.063 92.6945 17.139 92.6455 17.2097L92.6019 17.3004C92.5823 17.3307 92.5677 17.3559 92.558 17.376C92.5486 17.4162 92.5492 17.4562 92.5598 17.496C92.6116 17.6153 92.7075 17.6739 92.8475 17.6718C93.0374 17.669 93.2704 17.5306 93.5463 17.2565C93.6053 17.1857 93.6593 17.1199 93.7084 17.0591C93.8066 16.9377 93.895 16.8314 93.9737 16.7402C94.0032 16.7098 94.0279 16.6844 94.0476 16.6641C94.1358 16.5428 94.2239 16.4165 94.3119 16.2852L95.1785 15.0424L95.9568 13.9208L96.0596 13.7693C96.0888 13.7189 96.1134 13.6885 96.1332 13.6782C96.1631 13.6678 96.213 13.6621 96.283 13.661L96.8825 13.6222C96.9425 13.6214 96.9728 13.6459 96.9736 13.6959C96.9739 13.7159 96.9691 13.731 96.9592 13.7411L95.1841 16.4224C94.9393 16.7761 94.7441 17.094 94.5982 17.3761C94.5397 17.477 94.4961 17.5677 94.4673 17.6481C94.4873 17.6478 94.5173 17.6473 94.5573 17.6468C94.9572 17.6409 95.4846 17.1231 96.1393 16.0934L96.2752 16.1514ZM92.4009 17.9034C92.4025 18.0134 92.4633 18.0675 92.5833 18.0657C92.6933 18.0641 92.8865 17.9413 93.1629 17.6972C93.0635 17.7387 92.9638 17.7601 92.8638 17.7616C92.6838 17.7642 92.5529 17.7012 92.4709 17.5723C92.423 17.7131 92.3997 17.8234 92.4009 17.9034ZM100.312 15.9872C100.312 16.0172 100.259 16.123 100.152 16.3046C100.054 16.486 99.8876 16.6985 99.6512 16.942C99.2377 17.3781 98.8324 17.6991 98.4354 17.9049C98.2567 17.9876 98.0876 18.0551 97.9284 18.1074C97.7993 18.1693 97.6748 18.2011 97.5548 18.2029L97.4948 18.2038L97.4048 18.2051C97.1348 18.209 96.9082 18.1023 96.7249 17.885C96.5415 17.6577 96.4473 17.374 96.4422 17.0341C96.4292 16.1642 96.8872 15.3574 97.8162 14.6137C97.994 14.461 98.1819 14.3233 98.3801 14.2003C98.5782 14.0674 98.7715 13.9546 98.9601 13.8618C99.1486 13.759 99.3225 13.6815 99.4817 13.6291C99.6408 13.5668 99.7753 13.5348 99.8853 13.5332C100.065 13.5306 100.211 13.5834 100.323 13.6918C100.434 13.7902 100.491 13.9244 100.494 14.0943C100.497 14.2943 100.415 14.5105 100.248 14.743C100.082 14.9655 99.8694 15.1486 99.6116 15.2924C99.4132 15.4053 99.1897 15.5036 98.9409 15.5873C98.6042 15.8122 98.1727 16.0486 97.6463 16.2963C97.2647 16.862 97.076 17.2848 97.0802 17.5648C97.0827 17.7347 97.1197 17.8642 97.191 17.9532C97.2718 18.002 97.3621 18.0257 97.4621 18.0242C97.6021 18.0222 97.7863 17.9695 98.0148 17.8661C98.0944 17.8349 98.1738 17.7988 98.2532 17.7576C98.6782 17.4213 99.1845 16.8288 99.7718 15.9801L99.8782 16.0686C99.4864 16.6244 99.1281 17.0747 98.8032 17.4195C99.0605 17.2357 99.3124 17.022 99.5587 16.7783C99.8248 16.5144 100.056 16.231 100.251 15.9281C100.271 15.9078 100.286 15.9076 100.296 15.9274C100.306 15.9373 100.311 15.9522 100.312 15.9722L100.312 15.9872ZM99.7204 14.5407C99.7187 14.4307 99.6579 14.3766 99.5379 14.3784C99.3479 14.3812 99.0412 14.6007 98.6176 15.037C98.4208 15.2499 98.2438 15.4525 98.0867 15.6448C98.246 15.6025 98.4101 15.5401 98.5789 15.4576C98.8369 15.3238 99.0747 15.1703 99.2921 14.9971C99.4502 14.8647 99.5931 14.7226 99.7208 14.5707L99.7204 14.5407ZM100.041 13.906C100.039 13.766 99.9678 13.697 99.8278 13.6991C99.5978 13.7024 99.3055 13.8817 98.9507 14.237C98.8524 14.3484 98.7491 14.465 98.6409 14.5866C98.9679 14.3818 99.2714 14.2773 99.5513 14.2732C99.7013 14.271 99.7971 14.3196 99.8385 14.419C99.9757 14.227 100.043 14.056 100.041 13.906ZM97.9396 15.842C97.8709 15.933 97.8073 16.0239 97.7486 16.1148C97.9967 15.9812 98.2249 15.8578 98.4332 15.7447C98.2737 15.7771 98.1091 15.8095 97.9396 15.842ZM106.564 9.51986L106.369 9.53772C106.139 9.54109 106.023 9.44279 106.02 9.24281C106.018 9.09283 106.096 8.95167 106.254 8.81934C106.411 8.67701 106.58 8.60453 106.76 8.60189C107.03 8.59793 107.167 8.71094 107.171 8.94091C107.175 9.21088 106.999 9.49849 106.643 9.80373C106.564 9.8649 106.47 9.93128 106.361 10.0029C106.262 10.0743 106.158 10.1409 106.049 10.2025C105.95 10.2539 105.856 10.3003 105.766 10.3416C105.687 10.3728 105.632 10.3886 105.602 10.3891C105.572 10.3895 105.557 10.3797 105.557 10.3597C105.556 10.3397 105.576 10.3144 105.615 10.2839C105.893 10.1198 106.096 9.98678 106.224 9.88488C106.353 9.77299 106.471 9.64624 106.579 9.50465L106.564 9.51986ZM105.364 9.53746L105.169 9.55531C104.939 9.55869 104.823 9.46038 104.82 9.26041C104.818 9.11042 104.896 8.96926 105.054 8.83693C105.212 8.6946 105.381 8.62212 105.561 8.61948C105.83 8.61552 105.967 8.72853 105.971 8.9585C105.975 9.22847 105.799 9.51608 105.443 9.82133C105.364 9.88249 105.27 9.94888 105.161 10.0205C105.062 10.0919 104.958 10.1585 104.849 10.2201C104.75 10.2715 104.656 10.3179 104.566 10.3592C104.487 10.3904 104.432 10.4062 104.402 10.4067C104.372 10.4071 104.357 10.3973 104.357 10.3773C104.356 10.3573 104.376 10.332 104.416 10.3014C104.693 10.1374 104.896 10.0044 105.025 9.90248C105.153 9.79058 105.271 9.66384 105.379 9.52224L105.364 9.53746Z" fill="white"/>
</g>
<line x1="50.2704" y1="26.2213" x2="103.27" y2="26.2213" stroke="white"/>
<path d="M52.1783 32.0413V34.7213H51.7833V33.0113C51.7833 32.9413 51.785 32.868 51.7883 32.7913C51.795 32.7146 51.8016 32.6396 51.8083 32.5663H51.7933L50.9183 34.7213H50.5483L49.6983 32.5663H49.6833C49.6933 32.7163 49.6983 32.8696 49.6983 33.0263V34.7213H49.3033V32.0413H49.8883L50.7333 34.1963L51.5933 32.0413H52.1783ZM54.2988 31.9963C54.6254 31.9963 54.8671 32.068 55.0238 32.2113C55.1804 32.3546 55.2588 32.583 55.2588 32.8963V34.7213H54.9388L54.8538 34.3413H54.8338C54.7171 34.488 54.5938 34.5963 54.4638 34.6663C54.3371 34.7363 54.1604 34.7713 53.9338 34.7713C53.6904 34.7713 53.4888 34.708 53.3288 34.5813C53.1688 34.4513 53.0888 34.2496 53.0888 33.9763C53.0888 33.7096 53.1938 33.5046 53.4038 33.3613C53.6138 33.2146 53.9371 33.1346 54.3738 33.1213L54.8288 33.1063V32.9463C54.8288 32.723 54.7804 32.568 54.6838 32.4813C54.5871 32.3946 54.4504 32.3513 54.2738 32.3513C54.1338 32.3513 54.0004 32.373 53.8738 32.4163C53.7471 32.4563 53.6288 32.503 53.5188 32.5563L53.3838 32.2263C53.5004 32.163 53.6388 32.1096 53.7988 32.0663C53.9588 32.0196 54.1254 31.9963 54.2988 31.9963ZM54.8238 33.4113L54.4288 33.4263C54.0954 33.4396 53.8638 33.493 53.7338 33.5863C53.6071 33.6796 53.5438 33.8113 53.5438 33.9813C53.5438 34.1313 53.5888 34.2413 53.6788 34.3113C53.7721 34.3813 53.8904 34.4163 54.0338 34.4163C54.2604 34.4163 54.4488 34.3546 54.5988 34.2313C54.7488 34.1046 54.8238 33.9113 54.8238 33.6513V33.4113ZM57.9715 32.0413V32.4113H56.7765V34.7213H56.3365V32.0413H57.9715ZM59.7646 31.9963C60.0913 31.9963 60.3329 32.068 60.4896 32.2113C60.6463 32.3546 60.7246 32.583 60.7246 32.8963V34.7213H60.4046L60.3196 34.3413H60.2996C60.1829 34.488 60.0596 34.5963 59.9296 34.6663C59.8029 34.7363 59.6263 34.7713 59.3996 34.7713C59.1563 34.7713 58.9546 34.708 58.7946 34.5813C58.6346 34.4513 58.5546 34.2496 58.5546 33.9763C58.5546 33.7096 58.6596 33.5046 58.8696 33.3613C59.0796 33.2146 59.4029 33.1346 59.8396 33.1213L60.2946 33.1063V32.9463C60.2946 32.723 60.2463 32.568 60.1496 32.4813C60.0529 32.3946 59.9163 32.3513 59.7396 32.3513C59.5996 32.3513 59.4663 32.373 59.3396 32.4163C59.2129 32.4563 59.0946 32.503 58.9846 32.5563L58.8496 32.2263C58.9663 32.163 59.1046 32.1096 59.2646 32.0663C59.4246 32.0196 59.5913 31.9963 59.7646 31.9963ZM60.2896 33.4113L59.8946 33.4263C59.5613 33.4396 59.3296 33.493 59.1996 33.5863C59.0729 33.6796 59.0096 33.8113 59.0096 33.9813C59.0096 34.1313 59.0546 34.2413 59.1446 34.3113C59.2379 34.3813 59.3563 34.4163 59.4996 34.4163C59.7263 34.4163 59.9146 34.3546 60.0646 34.2313C60.2146 34.1046 60.2896 33.9113 60.2896 33.6513V33.4113ZM62.5073 31.9913C62.814 31.9913 63.0573 32.053 63.2373 32.1763C63.4207 32.2963 63.5123 32.4696 63.5123 32.6963C63.5123 32.8596 63.4673 32.9896 63.3773 33.0863C63.2873 33.1796 63.164 33.248 63.0073 33.2913V33.3113C63.114 33.3413 63.2123 33.383 63.3023 33.4363C63.3923 33.4896 63.464 33.5596 63.5173 33.6463C63.574 33.733 63.6023 33.8446 63.6023 33.9813C63.6023 34.2046 63.509 34.393 63.3223 34.5463C63.139 34.6963 62.8507 34.7713 62.4573 34.7713C62.264 34.7713 62.089 34.7546 61.9323 34.7213C61.7757 34.6913 61.6457 34.6496 61.5423 34.5963V34.2013C61.6557 34.2546 61.789 34.303 61.9423 34.3463C62.099 34.3896 62.269 34.4113 62.4523 34.4113C62.6523 34.4113 62.8207 34.378 62.9573 34.3113C63.0973 34.2413 63.1673 34.123 63.1673 33.9563C63.1673 33.6563 62.9123 33.5063 62.4023 33.5063H62.0423V33.1463H62.3323C62.5623 33.1463 62.7457 33.1163 62.8823 33.0563C63.0223 32.993 63.0923 32.8863 63.0923 32.7363C63.0923 32.6096 63.039 32.5146 62.9323 32.4513C62.829 32.388 62.679 32.3563 62.4823 32.3563C62.3357 32.3563 62.2057 32.3713 62.0923 32.4013C61.9823 32.428 61.8607 32.4696 61.7273 32.5263L61.5723 32.1763C61.8523 32.053 62.164 31.9913 62.5073 31.9913ZM64.9185 32.0413V33.6763C64.9185 33.7163 64.9168 33.7763 64.9135 33.8563C64.9102 33.9363 64.9052 34.0163 64.8985 34.0963C64.8952 34.1763 64.8918 34.2396 64.8885 34.2863L66.3235 32.0413H66.8635V34.7213H66.4535V33.1413C66.4535 33.088 66.4535 33.018 66.4535 32.9313C66.4568 32.8446 66.4602 32.7596 66.4635 32.6763C66.4668 32.5896 66.4702 32.5246 66.4735 32.4813L65.0485 34.7213H64.5035V32.0413H64.9185ZM68.4064 32.0413V33.1563H69.8614V32.0413H70.3014V34.7213H69.8614V33.5263H68.4064V34.7213H67.9664V32.0413H68.4064ZM74.2629 31.9913C74.5929 31.9913 74.8579 32.1063 75.0579 32.3363C75.2612 32.5663 75.3629 32.913 75.3629 33.3763C75.3629 33.833 75.2612 34.1796 75.0579 34.4163C74.8579 34.653 74.5912 34.7713 74.2579 34.7713C74.0512 34.7713 73.8795 34.733 73.7429 34.6563C73.6095 34.5763 73.5045 34.4846 73.4279 34.3813H73.3979C73.4045 34.438 73.4112 34.5096 73.4179 34.5963C73.4245 34.683 73.4279 34.758 73.4279 34.8213V35.9213H72.9879V32.0413H73.3479L73.4079 32.4063H73.4279C73.5079 32.2896 73.6129 32.1913 73.7429 32.1113C73.8729 32.0313 74.0462 31.9913 74.2629 31.9913ZM74.1829 32.3613C73.9095 32.3613 73.7162 32.438 73.6029 32.5913C73.4929 32.7446 73.4345 32.978 73.4279 33.2913V33.3763C73.4279 33.7063 73.4812 33.9613 73.5879 34.1413C73.6979 34.318 73.8995 34.4063 74.1929 34.4063C74.3562 34.4063 74.4895 34.3613 74.5929 34.2713C74.6995 34.1813 74.7779 34.0596 74.8279 33.9063C74.8812 33.7496 74.9079 33.5713 74.9079 33.3713C74.9079 33.0646 74.8479 32.8196 74.7279 32.6363C74.6112 32.453 74.4295 32.3613 74.1829 32.3613ZM76.729 32.0413V33.6763C76.729 33.7163 76.7274 33.7763 76.724 33.8563C76.7207 33.9363 76.7157 34.0163 76.709 34.0963C76.7057 34.1763 76.7024 34.2396 76.699 34.2863L78.134 32.0413H78.674V34.7213H78.264V33.1413C78.264 33.088 78.264 33.018 78.264 32.9313C78.2674 32.8446 78.2707 32.7596 78.274 32.6763C78.2774 32.5896 78.2807 32.5246 78.284 32.4813L76.859 34.7213H76.314V32.0413H76.729ZM81.6269 32.4113H80.7519V34.7213H80.3169V32.4113H79.4519V32.0413H81.6269V32.4113ZM81.9849 32.0413H82.4549L83.0349 33.5663C83.0849 33.6996 83.1299 33.828 83.1699 33.9513C83.2099 34.0713 83.2399 34.1863 83.2599 34.2963H83.2799C83.2999 34.213 83.3315 34.1046 83.3749 33.9713C83.4182 33.8346 83.4632 33.698 83.5099 33.5613L84.0549 32.0413H84.5299L83.3749 35.0913C83.2815 35.3446 83.1599 35.5463 83.0099 35.6963C82.8632 35.8463 82.6599 35.9213 82.3999 35.9213C82.3199 35.9213 82.2499 35.9163 82.1899 35.9063C82.1299 35.8996 82.0782 35.8913 82.0349 35.8813V35.5313C82.0715 35.538 82.1149 35.5446 82.1649 35.5513C82.2182 35.558 82.2732 35.5613 82.3299 35.5613C82.4832 35.5613 82.6065 35.518 82.6999 35.4313C82.7965 35.3446 82.8715 35.2296 82.9249 35.0863L83.0649 34.7313L81.9849 32.0413ZM86.2187 31.9963C86.5454 31.9963 86.787 32.068 86.9437 32.2113C87.1004 32.3546 87.1787 32.583 87.1787 32.8963V34.7213H86.8587L86.7737 34.3413H86.7537C86.637 34.488 86.5137 34.5963 86.3837 34.6663C86.257 34.7363 86.0804 34.7713 85.8537 34.7713C85.6104 34.7713 85.4087 34.708 85.2487 34.5813C85.0887 34.4513 85.0087 34.2496 85.0087 33.9763C85.0087 33.7096 85.1137 33.5046 85.3237 33.3613C85.5337 33.2146 85.857 33.1346 86.2937 33.1213L86.7487 33.1063V32.9463C86.7487 32.723 86.7004 32.568 86.6037 32.4813C86.507 32.3946 86.3704 32.3513 86.1937 32.3513C86.0537 32.3513 85.9204 32.373 85.7937 32.4163C85.667 32.4563 85.5487 32.503 85.4387 32.5563L85.3037 32.2263C85.4204 32.163 85.5587 32.1096 85.7187 32.0663C85.8787 32.0196 86.0454 31.9963 86.2187 31.9963ZM86.7437 33.4113L86.3487 33.4263C86.0154 33.4396 85.7837 33.493 85.6537 33.5863C85.527 33.6796 85.4637 33.8113 85.4637 33.9813C85.4637 34.1313 85.5087 34.2413 85.5987 34.3113C85.692 34.3813 85.8104 34.4163 85.9537 34.4163C86.1804 34.4163 86.3687 34.3546 86.5187 34.2313C86.6687 34.1046 86.7437 33.9113 86.7437 33.6513V33.4113ZM90.2964 34.7213H89.8514V32.4063H89.0614C89.0181 32.9696 88.9581 33.4246 88.8814 33.7713C88.8048 34.1146 88.7031 34.3646 88.5764 34.5213C88.4498 34.678 88.2898 34.7563 88.0964 34.7563C88.0531 34.7563 88.0098 34.753 87.9664 34.7463C87.9264 34.743 87.8931 34.7346 87.8664 34.7213V34.3913C87.8864 34.398 87.9081 34.403 87.9314 34.4063C87.9548 34.4096 87.9781 34.4113 88.0014 34.4113C88.1814 34.4113 88.3248 34.2196 88.4314 33.8363C88.5414 33.453 88.6248 32.8546 88.6814 32.0413H90.2964V34.7213ZM91.837 33.1413H92.632C93.3287 33.1413 93.677 33.3946 93.677 33.9013C93.677 34.1513 93.592 34.3513 93.422 34.5013C93.252 34.648 92.982 34.7213 92.612 34.7213H91.397V32.0413H91.837V33.1413ZM93.237 33.9263C93.237 33.763 93.1787 33.653 93.062 33.5963C92.9487 33.5363 92.7887 33.5063 92.582 33.5063H91.837V34.3663H92.592C92.7787 34.3663 92.932 34.333 93.052 34.2663C93.1754 34.1996 93.237 34.0863 93.237 33.9263ZM95.0558 32.0413V33.1563H96.5108V32.0413H96.9508V34.7213H96.5108V33.5263H95.0558V34.7213H94.6158V32.0413H95.0558ZM98.0494 34.7213V32.0413H98.4894V33.1413H99.1844C99.5311 33.1413 99.7877 33.2046 99.9544 33.3313C100.121 33.458 100.204 33.648 100.204 33.9013C100.204 34.1513 100.123 34.3513 99.9594 34.5013C99.7961 34.648 99.5311 34.7213 99.1644 34.7213H98.0494ZM100.649 34.7213V32.0413H101.089V34.7213H100.649ZM98.4894 34.3663H99.1244C99.3144 34.3663 99.4694 34.3346 99.5894 34.2713C99.7094 34.2046 99.7694 34.0896 99.7694 33.9263C99.7694 33.763 99.7144 33.653 99.6044 33.5963C99.4944 33.5363 99.3361 33.5063 99.1294 33.5063H98.4894V34.3663ZM102.826 33.3513L101.901 32.0413H102.401L103.091 33.0513L103.776 32.0413H104.271L103.346 33.3513L104.321 34.7213H103.821L103.091 33.6513L102.351 34.7213H101.856L102.826 33.3513ZM69.9985 38.0413H70.4685L71.0485 39.5663C71.0985 39.6996 71.1435 39.828 71.1835 39.9513C71.2235 40.0713 71.2535 40.1863 71.2735 40.2963H71.2935C71.3135 40.213 71.3452 40.1046 71.3885 39.9713C71.4319 39.8346 71.4769 39.698 71.5235 39.5613L72.0685 38.0413H72.5435L71.3885 41.0913C71.2952 41.3446 71.1735 41.5463 71.0235 41.6963C70.8769 41.8463 70.6735 41.9213 70.4135 41.9213C70.3335 41.9213 70.2635 41.9163 70.2035 41.9063C70.1435 41.8996 70.0919 41.8913 70.0485 41.8813V41.5313C70.0852 41.538 70.1285 41.5446 70.1785 41.5513C70.2319 41.558 70.2869 41.5613 70.3435 41.5613C70.4969 41.5613 70.6202 41.518 70.7135 41.4313C70.8102 41.3446 70.8852 41.2296 70.9385 41.0863L71.0785 40.7313L69.9985 38.0413ZM74.2924 40.7713C74.0557 40.7713 73.844 40.723 73.6574 40.6263C73.474 40.5296 73.329 40.3796 73.2224 40.1763C73.119 39.973 73.0674 39.713 73.0674 39.3963C73.0674 39.0663 73.1224 38.798 73.2324 38.5913C73.3424 38.3846 73.4907 38.233 73.6774 38.1363C73.8674 38.0396 74.0824 37.9913 74.3224 37.9913C74.459 37.9913 74.5907 38.0063 74.7174 38.0363C74.844 38.063 74.9474 38.0963 75.0274 38.1363L74.8924 38.5013C74.8124 38.4713 74.719 38.443 74.6124 38.4163C74.5057 38.3896 74.4057 38.3763 74.3124 38.3763C73.7857 38.3763 73.5224 38.7146 73.5224 39.3913C73.5224 39.7146 73.5857 39.963 73.7124 40.1363C73.8424 40.3063 74.034 40.3913 74.2874 40.3913C74.434 40.3913 74.5624 40.3763 74.6724 40.3463C74.7857 40.3163 74.889 40.2796 74.9824 40.2363V40.6263C74.8924 40.673 74.7924 40.708 74.6824 40.7313C74.5757 40.758 74.4457 40.7713 74.2924 40.7713ZM77.9097 40.7213H77.4647V38.4063H76.6747C76.6314 38.9696 76.5714 39.4246 76.4947 39.7713C76.418 40.1146 76.3164 40.3646 76.1897 40.5213C76.063 40.678 75.903 40.7563 75.7097 40.7563C75.6664 40.7563 75.623 40.753 75.5797 40.7463C75.5397 40.743 75.5064 40.7346 75.4797 40.7213V40.3913C75.4997 40.398 75.5214 40.403 75.5447 40.4063C75.568 40.4096 75.5914 40.4113 75.6147 40.4113C75.7947 40.4113 75.938 40.2196 76.0447 39.8363C76.1547 39.453 76.238 38.8546 76.2947 38.0413H77.9097V40.7213ZM78.5903 38.0413H79.0603L79.6403 39.5663C79.6903 39.6996 79.7353 39.828 79.7753 39.9513C79.8153 40.0713 79.8453 40.1863 79.8653 40.2963H79.8853C79.9053 40.213 79.937 40.1046 79.9803 39.9713C80.0237 39.8346 80.0687 39.698 80.1153 39.5613L80.6603 38.0413H81.1353L79.9803 41.0913C79.887 41.3446 79.7653 41.5463 79.6153 41.6963C79.4687 41.8463 79.2653 41.9213 79.0053 41.9213C78.9253 41.9213 78.8553 41.9163 78.7953 41.9063C78.7353 41.8996 78.6837 41.8913 78.6403 41.8813V41.5313C78.677 41.538 78.7203 41.5446 78.7703 41.5513C78.8237 41.558 78.8787 41.5613 78.9353 41.5613C79.0887 41.5613 79.212 41.518 79.3053 41.4313C79.402 41.3446 79.477 41.2296 79.5303 41.0863L79.6703 40.7313L78.5903 38.0413ZM83.4442 38.0413V38.4113H82.2492V40.7213H81.8092V38.0413H83.4442Z" fill="#F1F1F1"/>
<g clip-path="url(#clip0)">
<path d="M21.2213 0C16.8888 0 12.5172 1.15341 12.5172 3.73031C12.5172 6.3072 16.8888 7.46061 21.2213 7.46061C25.5538 7.46061 29.9253 6.3072 29.9253 3.73031C29.9253 1.15341 25.5538 0 21.2213 0ZM21.2213 4.97374C17.7845 4.97374 15.7008 4.18996 15.1169 3.73031C15.7008 3.27065 17.7844 2.48687 21.2213 2.48687C24.6581 2.48687 26.7418 3.27065 27.3256 3.73031C26.7418 4.18996 24.6581 4.97374 21.2213 4.97374Z" fill="white"/>
<path d="M41.1992 14.9212C40.7415 14.9212 31.5449 14.9212 31.1688 14.9212C29.842 14.9212 28.5689 15.2245 27.4247 15.7713C27.221 12.5259 24.5172 9.94748 21.2213 9.94748C17.9254 9.94748 15.2216 12.5259 15.0179 15.7713C13.8737 15.2245 12.6006 14.9212 11.2738 14.9212C10.8908 14.9212 1.70798 14.9212 1.24344 14.9212C0.556727 14.9212 0 15.4779 0 16.1647C0 18.1676 0.96416 19.9466 2.48745 21.101C2.48704 21.1134 2.48687 21.1259 2.48687 21.1384C2.48687 23.1659 3.4764 24.9777 5.05722 26.1361C5.07031 29.5532 7.8537 32.3293 11.2738 32.3293H12.2875C12.0456 34.3036 11.6153 36.2427 11.0082 38.0638L10.0942 40.8059C9.96787 41.1851 10.0315 41.6019 10.2651 41.9261C10.4988 42.2504 10.8741 42.4426 11.2738 42.4426C12.2431 42.4426 30.1715 42.4426 31.1688 42.4426C31.5684 42.4426 31.9439 42.2504 32.1775 41.9262C32.4112 41.6019 32.4748 41.1851 32.3485 40.806L31.4345 38.0639C30.8274 36.2427 30.3971 34.3036 30.1551 32.3293H31.1688C34.5969 32.3293 37.386 29.5403 37.386 26.1121C37.386 26.111 37.3858 26.1098 37.3858 26.1087C38.8889 24.9777 39.8651 23.1823 39.8727 21.1624C41.459 19.9998 42.4426 18.1847 42.4426 16.1647C42.4426 15.4779 41.8859 14.9212 41.1992 14.9212ZM21.2213 12.4344C23.2782 12.4344 24.9516 14.1078 24.9516 16.1647C24.9516 18.2215 23.2782 19.895 21.2213 19.895C19.1644 19.895 17.491 18.2215 17.491 16.1647C17.491 14.1078 19.1644 12.4344 21.2213 12.4344ZM24.6473 23.4145L21.2213 26.8405L17.7953 23.4145C18.7784 22.7627 19.956 22.3818 21.2213 22.3818C22.4866 22.3818 23.6642 22.7627 24.6473 23.4145ZM12.4914 29.8424H11.2738C9.65271 29.8424 8.26976 28.803 7.75655 27.3556H9.21145C9.89816 27.3556 10.4549 26.7988 10.4549 26.1121C10.4549 25.4254 9.89816 24.8687 9.21145 24.8687H8.78694C7.16302 24.8687 5.73713 23.8144 5.20046 22.3818H8.78694C9.47365 22.3818 10.0304 21.8251 10.0304 21.1384C10.0304 20.4517 9.47365 19.895 8.78694 19.895H6.30007C4.67615 19.895 3.25026 18.8407 2.71359 17.4081C4.30237 17.4081 9.67086 17.4081 11.2738 17.4081C13.7279 17.4081 15.9267 18.8563 16.9259 21.031C16.2754 21.4016 15.6773 21.8538 15.1452 22.3733C15.1184 22.3959 15.0919 22.4191 15.0666 22.4443C15.0414 22.4695 15.0183 22.4961 14.9957 22.5228C13.4633 24.0926 12.5172 26.2372 12.5172 28.599C12.5172 29.0131 12.5084 29.4278 12.4914 29.8424ZM15.9408 39.9557H12.999L13.3675 38.8502C14.4382 35.6382 15.0041 32.0933 15.0041 28.599C15.0041 27.3337 15.3849 26.1561 16.0368 25.173L19.9779 29.114V32.9857C19.9779 35.8541 18.3663 38.6177 15.9408 39.9557ZM19.8433 39.9557C20.3773 39.3473 20.8396 38.6758 21.2213 37.9576C21.603 38.6759 22.0653 39.3474 22.5993 39.9557H19.8433ZM26.5018 39.9557C24.0764 38.6177 22.4647 35.8541 22.4647 32.9857V29.114L26.4058 25.1729C27.0576 26.1561 27.4385 27.3337 27.4385 28.599C27.4385 32.0932 28.0044 35.638 29.0751 38.8502L29.4436 39.9557H26.5018ZM36.1425 19.895H33.6557C32.9689 19.895 32.4122 20.4517 32.4122 21.1384C32.4122 21.8251 32.9689 22.3735 33.6557 22.3735H37.1729C36.6598 23.821 35.2768 24.8687 33.6557 24.8687H33.2311C32.5444 24.8687 31.9877 25.4254 31.9877 26.1121C31.9877 26.7988 32.5444 27.3473 33.2311 27.3473H34.686C34.1729 28.7947 32.79 29.8424 31.1688 29.8424H29.9512C29.9342 29.4278 29.9253 29.0131 29.9253 28.599C29.9253 26.2371 28.9793 24.0925 27.4468 22.5227C27.4243 22.496 27.4012 22.4695 27.3761 22.4443C27.3509 22.4192 27.3244 22.3961 27.2977 22.3735C26.7655 21.8539 26.1674 21.4017 25.5169 21.031C26.5158 18.8564 28.7147 17.3998 31.1688 17.3998C32.7717 17.3998 38.1402 17.3998 39.729 17.3998C39.1923 18.8324 37.7664 19.895 36.1425 19.895Z" fill="white"/>
</g>
<defs>
<filter id="filter0_d" x="43.2903" y="7.5444" width="67.8802" height="25.2803" filterUnits="userSpaceOnUse" color-interpolation-filters="sRGB">
<feFlood flood-opacity="0" result="BackgroundImageFix"/>
<feColorMatrix in="SourceAlpha" type="matrix" values="0 0 0 0 0 0 0 0 0 0 0 0 0 0 0 0 0 0 127 0"/>
<feOffset dy="4"/>
<feGaussianBlur stdDeviation="2"/>
<feColorMatrix type="matrix" values="0 0 0 0 0 0 0 0 0 0 0 0 0 0 0 0 0 0 0.25 0"/>
<feBlend mode="normal" in2="BackgroundImageFix" result="effect1_dropShadow"/>
<feBlend mode="normal" in="SourceGraphic" in2="effect1_dropShadow" result="shape"/>
</filter>
<clipPath id="clip0">
<rect width="42.4426" height="42.4426" fill="white"/>
</clipPath>
</defs>
</svg>
